<?xml version="1.0" encoding="UTF-8"?>
<!-- Generated by Pixelmator Pro 2.4.5 -->
<svg width="145" height="146" viewBox="0 0 145 146" xmlns="http://www.w3.org/2000/svg" xmlns:xlink="http://www.w3.org/1999/xlink">
    <g id="Group">
        <path id="Path" fill="#6273cd" stroke="none" d="M 73.556763 2.65181 C 112.631378 3.44519 143.664459 35.764603 142.871094 74.839203 C 142.077728 113.913818 109.758301 144.946884 70.683685 144.153503 C 31.60907 143.360138 0.576019 111.040756 1.369385 71.966141 C 2.162781 32.891541 34.482147 1.858444 73.556763 2.65181 Z"/>
        <path id="path1" fill="#c1ad1f" stroke="none" d="M 73.278015 85.018005 C 72.040009 84.864014 55.263 83.03299 55.263 96.838013 C 55.263 111.17099 68.563995 107.505005 68.563995 112.67099 C 68.563995 116.347992 71.220001 121.885986 72.756012 124.78299 L 72.734985 126.709015 C 72.734985 126.709015 72.946991 126.350006 73.278015 125.75 C 73.609985 126.350006 73.821991 126.709015 73.821991 126.709015 L 73.799988 124.78299 C 75.335999 121.885986 77.992004 116.347992 77.992004 112.67099 C 77.992004 107.503998 91.292999 111.17099 91.292999 96.838013 C 91.292999 83.03299 74.515991 84.864014 73.278015 85.018005 Z"/>
        <path id="path2" fill="#c48349" stroke="none" d="M 98.704987 54.716003 C 98.713013 63.786011 97.005005 82.257996 83.544006 88.393005 C 80.721008 89.679993 77.385986 90.428009 73.437012 90.428009 C 69.725006 90.428009 66.562988 89.678009 63.868988 88.372986 C 52.145996 82.694 49.306 66.457001 48.803009 55.27301 C 48.51001 48.759003 49.471985 20.542999 75.415985 21.381012 C 101.792999 22.231995 98.703003 51.589996 98.704987 54.716003 Z"/>
        <path id="path3" fill="none" stroke="#08393d" stroke-linecap="round" stroke-linejoin="round" d="M 69.240997 65.57901 C 69.240997 65.57901 65.571991 70.212006 71.618011 70.212006 L 72.734009 70.212006 L 73.850006 70.212006 C 79.895996 70.212006 76.22699 65.57901 76.22699 65.57901"/>
        <path id="path4" fill="#c48349" stroke="none" d="M 38.382996 58.066986 C 36.207001 62.419006 42.234009 72.161011 50.768005 69.431 L 50.768005 69.424011 C 49.529999 64.549011 48.994995 59.541992 48.803009 55.272003 C 48.802002 55.27301 40.55899 53.714996 38.382996 58.066986 Z"/>
        <path id="path5" fill="#c48349" stroke="none" d="M 109.76001 58.066986 C 107.584015 53.714996 99.339996 55.272003 99.339996 55.272003 C 99.339996 55.272003 99.065002 55.302002 98.690002 55.364014 C 98.660004 59.091003 98.326996 64.18399 97.088989 69.338013 C 97.188995 69.368011 97.286987 69.397003 97.375 69.424011 L 97.375 69.431 C 105.908997 72.161987 111.937012 62.420013 109.76001 58.066986 Z"/>
        <path id="path6" fill="none" stroke="#08393d" stroke-linecap="round" stroke-linejoin="round" d="M 41.257996 61.303986 C 41.257996 61.303986 44.904999 58.632996 47.445007 62.139008 C 47.445007 62.139008 42.920013 62.873993 44.588013 65.786011"/>
        <path id="path7" fill="none" stroke="#08393d" stroke-linecap="round" stroke-linejoin="round" d="M 106.742004 61.303986 C 106.742004 61.303986 103.095001 58.632996 100.554993 62.139008 C 100.554993 62.139008 105.079987 62.873993 103.411987 65.786011"/>
        <path id="path8" fill="none" stroke="#08393d" stroke-linecap="round" stroke-linejoin="round" d="M 68.063995 77.181 C 68.063995 77.181 73.338013 82.375 77.354004 77.181"/>
        <g id="g1">
            <path id="path9" fill="#08393d" stroke="none" d="M 67.791992 48.675995 C 66.583008 47.875 65.28299 47.23999 63.964996 46.852997 C 62.644012 46.463013 61.292999 46.319 59.940002 46.401001 C 58.585999 46.529999 57.246002 46.876007 55.916992 47.380005 C 55.253998 47.631012 54.615997 47.968994 53.938995 48.246002 C 53.299011 48.593994 52.656006 48.951996 51.963989 49.270996 L 51.937012 49.28299 C 51.795013 49.347992 51.627014 49.286011 51.562012 49.144012 C 51.513 49.036987 51.536011 48.915985 51.609985 48.834991 C 52.127014 48.269012 52.687012 47.734009 53.260986 47.205994 C 53.895996 46.761993 54.507996 46.256989 55.205994 45.885986 C 56.584991 45.102997 58.149994 44.597992 59.782013 44.417999 C 61.42099 44.296997 63.100006 44.571991 64.576996 45.256012 C 66.058014 45.929993 67.338989 46.955994 68.213989 48.307007 C 68.299011 48.437988 68.260986 48.613007 68.130005 48.697998 C 68.03299 48.760986 67.911011 48.756989 67.820007 48.696991 L 67.791992 48.675995 Z"/>
        </g>
        <g id="g2">
            <path id="path10" fill="#08393d" stroke="none" d="M 77.179993 48.306 C 78.054993 46.954987 79.335999 45.928986 80.816986 45.255005 C 82.295013 44.571014 83.973999 44.296997 85.612 44.416992 C 87.243988 44.596008 88.80899 45.10199 90.187988 45.88501 C 90.885986 46.256012 91.497986 46.760986 92.132996 47.204987 C 92.707001 47.733002 93.266998 48.268005 93.783997 48.834015 C 93.889008 48.950012 93.881012 49.128998 93.765991 49.234009 C 93.678986 49.312988 93.557007 49.328003 93.457001 49.282013 L 93.429993 49.269012 C 92.738007 48.950989 92.095001 48.592987 91.45401 48.243988 C 90.778015 47.966003 90.139008 47.628998 89.476013 47.377991 C 88.147003 46.873993 86.807007 46.528015 85.453003 46.398987 C 84.100006 46.316986 82.75 46.462006 81.428009 46.851013 C 80.109985 47.238007 78.811005 47.872986 77.601013 48.674011 L 77.571991 48.692993 C 77.441986 48.778992 77.265991 48.743988 77.179993 48.614014 C 77.117004 48.519012 77.121002 48.397003 77.179993 48.306 Z"/>
        </g>
        <path id="path11" fill="#08393d" stroke="none" d="M 62.196014 54.436005 C 62.196014 56.162994 60.79599 57.562012 59.070007 57.562012 C 57.342987 57.562012 55.944 56.161987 55.944 54.436005 C 55.944 52.709991 57.343994 51.309998 59.070007 51.309998 C 60.79599 51.309998 62.196014 52.709015 62.196014 54.436005 Z"/>
        <path id="path12" fill="#08393d" stroke="none" d="M 89.427002 54.436005 C 89.427002 56.162445 88.027435 57.562012 86.300995 57.562012 C 84.574554 57.562012 83.174988 56.162445 83.174988 54.436005 C 83.174988 52.709564 84.574554 51.309998 86.300995 51.309998 C 88.027435 51.309998 89.427002 52.709564 89.427002 54.436005 Z"/>
        <path id="path13" fill="none" stroke="#08393d" stroke-linecap="round" stroke-linejoin="round" d="M 68.313995 69.009003 C 68.002014 69.235992 67.617004 69.369995 67.201996 69.369995 C 66.154999 69.369995 65.307007 68.520996 65.307007 67.475006 C 65.307007 66.428009 66.156006 65.579987 67.201996 65.579987"/>
        <path id="path14" fill="none" stroke="#08393d" stroke-linecap="round" stroke-linejoin="round" d="M 77.153992 69.009003 C 77.466003 69.235992 77.851013 69.369995 78.265991 69.369995 C 79.312988 69.369995 80.161011 68.520996 80.161011 67.475006 C 80.161011 66.428009 79.312012 65.579987 78.265991 65.579987"/>
        <path id="path15" fill="#000000" stroke="none" d="M 87.015015 32.875 C 87.015015 33.303986 86.666992 33.651001 86.239014 33.651001 C 85.811005 33.651001 85.463013 33.303986 85.463013 32.875 C 85.463013 32.446014 85.809998 32.098999 86.239014 32.098999 C 86.667999 32.098999 87.015015 32.446991 87.015015 32.875 Z"/>
        <path id="path16" fill="#000000" stroke="none" d="M 86.238007 28.596008 C 86.238007 29.024994 85.890015 29.372009 85.462006 29.372009 C 85.03299 29.372009 84.686005 29.024994 84.686005 28.596008 C 84.686005 28.166992 85.033997 27.820007 85.462006 27.820007 C 85.890991 27.819 86.238007 28.166992 86.238007 28.596008 Z"/>
        <path id="path17" fill="#000000" stroke="none" d="M 90.298004 31.791992 C 90.298004 32.220581 89.950562 32.567993 89.522003 32.567993 C 89.093414 32.567993 88.746002 32.220581 88.746002 31.791992 C 88.746002 31.363434 89.093414 31.015991 89.522003 31.015991 C 89.950562 31.015991 90.298004 31.363434 90.298004 31.791992 Z"/>
        <path id="path18" fill="#c48349" stroke="none" d="M 87.233002 106.039001 C 81.445007 101.941986 82.549988 92.776001 83.473999 88.420013 C 80.651001 89.705994 77.31601 90.454987 73.367004 90.454987 C 69.654999 90.454987 66.493011 89.704987 63.799011 88.399994 C 64.722992 92.747986 65.839996 101.936005 60.044006 106.039001 C 53.536987 110.644989 36.411987 111.679993 31.136993 131.072998 C 42.700012 139.299011 56.82901 144.153015 72.101013 144.153015 C 88.498993 144.153015 103.582001 138.559998 115.579987 129.199005 C 109.742004 111.604004 93.523987 110.492004 87.233002 106.039001 Z"/>
        <path id="path19" fill="#cecece" stroke="none" d="M 82.946991 98.210999 C 82.42099 94.588989 82.967987 90.803009 83.468994 88.436005 C 80.645996 89.722992 77.311005 90.471008 73.362 90.471008 C 69.649994 90.471008 66.488007 89.721008 63.792999 88.415985 C 64.303009 90.813995 64.86499 94.683014 64.299988 98.359985 C 68.36499 99.714996 75.067993 100.902008 82.946991 98.210999 Z"/>
        <path id="path20" fill="none" stroke="#08393d" stroke-linecap="round" stroke-linejoin="round" d="M 70.722992 81.382996 C 70.722992 81.382996 72.884003 82.692993 75.240997 81.382996"/>
        <path id="path21" fill="#f2dd20" stroke="none" d="M 74.350006 144.084015 C 91.524994 143.54599 107.157013 136.908997 119.138 126.239014 C 117.589996 122.188995 114.714996 118.743011 109.553009 117.519989 C 109.553009 117.519989 111.950989 101.765991 96.434998 100.846985 C 96.434998 100.846985 100.507996 89.924988 88.537994 85.14801 C 88.537994 85.14801 87.217987 86.274994 86.434998 86.776001 C 85.652008 87.277008 83.951996 88.201996 83.951996 88.201996 C 85.660004 89.519989 94.039001 95.05899 89.664001 101.109009 C 84.72699 107.936005 77.391998 102.553009 76.264008 112.661987 C 75.363007 120.734985 74.104004 124.864014 73.632996 126.203003 C 73.665985 126.298004 73.695007 126.376007 73.720001 126.444 C 73.644012 126.376007 73.600006 126.296997 73.632996 126.203003 C 73.161987 124.864014 71.903015 120.734985 71.002014 112.661987 C 69.873993 102.553009 62.539001 107.936005 57.60199 101.109009 C 53.148987 94.951996 61.90799 89.322998 63.398987 88.135986 C 63.398987 88.135986 61.781006 87.22699 61.165985 86.77301 C 60.550995 86.320007 59.035004 85.028015 59.035004 85.028015 C 46.690002 89.73999 50.832001 100.846008 50.832001 100.846008 C 35.31601 101.765015 37.713989 117.519012 37.713989 117.519012 C 31.697998 118.944 28.785004 123.385986 27.464996 128.287994 C 39.643005 138.200989 55.174988 144.152008 72.10199 144.152008 C 72.429993 144.152008 73.237 144.125 73.824005 144.108002 L 73.824005 144.109009 C 73.841003 144.109009 73.858002 144.106995 73.875 144.106995 C 74.071991 144.101013 74.23999 144.096008 74.35199 144.093994 L 74.35199 144.084015 Z"/>
        <g id="g3">
            <path id="path22" fill="none" stroke="#08393d" stroke-linecap="round" stroke-linejoin="round" d="M 63.946991 115.024994 C 73.821014 119.489014 64.93399 121.983002 63.946991 128.809998 C 62.959991 135.636993 57.598999 129.859985 57.598999 136.031006"/>
            <path id="path23" fill="none" stroke="#08393d" stroke-linecap="round" stroke-linejoin="round" d="M 50.82901 100.846008 C 50.82901 100.846008 52.507996 105.872986 57.126007 110.356995"/>
            <path id="path24" fill="none" stroke="#08393d" stroke-linecap="round" stroke-linejoin="round" d="M 37.710999 117.519989 C 37.710999 117.519989 47.161987 114.631989 54.355988 116.731995"/>
            <path id="path25" fill="none" stroke="#08393d" stroke-linecap="round" stroke-linejoin="round" d="M 50.82901 104.26001 C 50.82901 104.26001 52.416992 112.401001 59.696014 117.519989"/>
        </g>
        <g id="g4">
            <path id="path26" fill="none" stroke="#08393d" stroke-linecap="round" stroke-linejoin="round" d="M 83.315002 115.024994 C 73.44101 119.489014 82.328003 121.983002 83.315002 128.809998 C 84.302002 135.636993 89.662994 129.859985 89.662994 136.031006"/>
            <path id="path27" fill="none" stroke="#08393d" stroke-linecap="round" stroke-linejoin="round" d="M 96.433014 100.846008 C 96.433014 100.846008 94.753998 105.872986 90.135986 110.356995"/>
            <path id="path28" fill="none" stroke="#08393d" stroke-linecap="round" stroke-linejoin="round" d="M 109.552002 117.519989 C 109.552002 117.519989 100.101013 114.631989 92.907013 116.731995"/>
            <path id="path29" fill="none" stroke="#08393d" stroke-linecap="round" stroke-linejoin="round" d="M 96.433014 104.26001 C 96.433014 104.26001 94.845001 112.401001 87.56601 117.519989"/>
        </g>
    </g>
</svg>
