<?xml version="1.0" encoding="UTF-8"?>
<!-- Generated by Pixelmator Pro 2.4.5 -->
<svg width="144" height="146" viewBox="0 0 144 146" xmlns="http://www.w3.org/2000/svg" xmlns:xlink="http://www.w3.org/1999/xlink">
    <g id="Group">
        <path id="Path" fill="#f2dd20" stroke="none" d="M 72.422699 2.655106 C 111.497314 3.42894 142.546234 35.732513 141.7724 74.807114 C 140.998596 113.881729 108.695007 144.930649 69.620407 144.156815 C 30.545792 143.382996 -0.503113 111.079437 0.270721 72.004822 C 1.044556 32.930206 33.348083 1.881271 72.422699 2.655106 Z"/>
        <linearGradient id="linearGradient1" x1="69.0648" y1="132.6382" x2="69.0648" y2="12.6511" gradientUnits="userSpaceOnUse">
            <stop offset="0.0078" stop-color="#fe3158" stop-opacity="1"/>
            <stop offset="1" stop-color="#fe6e74" stop-opacity="1"/>
        </linearGradient>
        <path id="path1" fill="url(#linearGradient1)" stroke="none" d="M 42.632004 132.638 C 41.744003 132.638 18.132996 127.794006 23.468002 105.049988 C 28.802994 82.306 37.787994 92.20401 36.069 58.220001 C 33.867996 14.709015 66.524994 4.105988 82.13501 19.006012 C 82.13501 19.006012 98.403992 7.397003 108.792999 27.614014 C 119.182007 47.830994 108.265991 79.503998 112.442993 103.427002 C 114.264008 113.854004 124.516998 132.347992 92.506989 128.697998 C 60.498001 125.048004 56.110001 132.638 42.632004 132.638 Z"/>
        <path id="path2" fill="#f7cfa4" stroke="none" d="M 97.367004 49.572998 C 97.367004 49.572998 84.740997 41.223999 81.371002 27.746002 C 81.371002 27.746002 70.199997 43.11499 47.878006 43.957001 C 47.878006 43.957001 44.186996 79.38501 62.738007 88.372009 C 65.432007 89.677002 68.593994 90.427002 72.307007 90.427002 C 76.255997 90.427002 79.591003 89.678009 82.414001 88.391998 C 100.515015 80.143005 97.367004 49.572998 97.367004 49.572998 Z"/>
        <g id="g1">
            <path id="path3" fill="#08393d" stroke="none" d="M 66.794998 48.554993 C 65.585999 47.753998 64.285995 47.118988 62.968002 46.731995 C 61.647003 46.342987 60.296005 46.197998 58.942993 46.279999 C 57.589005 46.408997 56.25 46.755005 54.919998 47.259003 C 54.257004 47.51001 53.619003 47.847992 52.942001 48.125 C 52.302002 48.472992 51.658997 48.830994 50.966995 49.149994 L 50.940002 49.161987 C 50.798004 49.22699 50.630005 49.165009 50.563995 49.02301 C 50.514999 48.915985 50.537994 48.795013 50.612 48.713989 C 51.128998 48.14801 51.688995 47.613007 52.263 47.084991 C 52.897995 46.640991 53.509995 46.135986 54.207993 45.765015 C 55.587006 44.981995 57.151993 44.47699 58.783997 44.296997 C 60.423004 44.175995 62.102005 44.450989 63.578995 45.13501 C 65.059998 45.80899 66.341003 46.834991 67.216003 48.186005 C 67.300995 48.316986 67.263 48.492004 67.132004 48.576996 C 67.035004 48.640015 66.912994 48.635986 66.822006 48.575989 L 66.794998 48.554993 Z"/>
        </g>
        <path id="path4" fill="#6273cd" stroke="none" d="M 58.104996 57.312988 C 59.848999 57.312988 61.264008 55.898987 61.264008 54.153992 C 61.264008 53.755005 61.182007 53.377991 61.046997 53.027008 C 58.688995 52.178986 56.600998 52.643005 55.057999 53.363007 C 54.992004 53.617004 54.945999 53.878998 54.945999 54.154999 C 54.945999 55.89801 56.360001 57.312988 58.104996 57.312988 Z"/>
        <g id="g2">
            <path id="path5" fill="#08393d" stroke="none" d="M 52.063004 55.019989 C 52.744003 53.971008 53.682999 53.165985 54.776001 52.550995 C 55.865997 51.934998 57.147995 51.592987 58.445999 51.584991 C 59.733002 51.612 61.050003 51.897003 62.121002 52.563995 C 62.699005 52.824005 63.141998 53.277008 63.628998 53.640015 C 64.067993 54.063995 64.460007 54.528992 64.822006 55.001007 C 64.940002 55.156006 64.910995 55.377014 64.755997 55.496002 C 64.649994 55.576996 64.511993 55.588989 64.397995 55.537994 L 64.348007 55.515991 C 63.815994 55.278992 63.352005 54.979004 62.865005 54.738007 L 62.130005 54.40799 C 61.893005 54.286011 61.653 54.184998 61.399994 54.118011 C 61.151993 54.041992 60.910995 53.951996 60.671005 53.868011 L 59.931 53.713989 C 59.688995 53.640991 59.438995 53.641998 59.192993 53.610992 C 58.947006 53.57901 58.701004 53.557007 58.453003 53.582001 C 56.475006 53.549011 54.481003 54.380005 52.572006 55.496002 L 52.537994 55.515991 C 52.369003 55.61499 52.151993 55.558014 52.052994 55.389008 C 51.983994 55.272003 51.992004 55.128998 52.063004 55.019989 Z"/>
        </g>
        <g id="g3">
            <path id="path6" fill="#08393d" stroke="none" d="M 76.182007 48.18399 C 77.057007 46.833008 78.338013 45.807007 79.819 45.132996 C 81.296997 44.449005 82.976013 44.174988 84.614014 44.295013 C 86.246002 44.473999 87.811005 44.980011 89.190002 45.763 C 89.888 46.134003 90.5 46.639008 91.13501 47.083008 C 91.709015 47.610992 92.269012 48.145996 92.786011 48.712006 C 92.890991 48.828003 92.882996 49.006989 92.768005 49.112 C 92.681 49.19101 92.55899 49.205994 92.459015 49.160004 L 92.432007 49.147003 C 91.73999 48.82901 91.096985 48.471008 90.457001 48.122009 C 89.781006 47.843994 89.141998 47.506989 88.479004 47.256012 C 87.149994 46.752014 85.809998 46.406006 84.455994 46.277008 C 83.102997 46.195007 81.752991 46.339996 80.431 46.729004 C 79.113007 47.115997 77.813995 47.751007 76.604004 48.552002 L 76.574997 48.571014 C 76.445007 48.657013 76.268997 48.622009 76.182999 48.492004 C 76.119995 48.39801 76.123001 48.276001 76.182007 48.18399 Z"/>
        </g>
        <path id="path7" fill="#6273cd" stroke="none" d="M 85.295013 57.312988 C 83.549988 57.312988 82.135986 55.898987 82.135986 54.153992 C 82.135986 53.755005 82.217987 53.377991 82.35199 53.027008 C 84.709991 52.178986 86.798004 52.643005 88.341003 53.363007 C 88.407013 53.617004 88.453003 53.878998 88.453003 54.154999 C 88.45401 55.89801 87.040009 57.312988 85.295013 57.312988 Z"/>
        <g id="g4">
            <path id="path8" fill="#08393d" stroke="none" d="M 90.828003 55.498993 C 88.919006 54.382996 86.925995 53.550995 84.946991 53.584991 C 84.699005 53.55899 84.453003 53.582001 84.207001 53.614014 C 83.960999 53.644012 83.710999 53.644012 83.470001 53.71701 L 82.730011 53.871002 C 82.48999 53.954987 82.248993 54.044006 82.001007 54.121002 C 81.748993 54.188995 81.507996 54.289001 81.270996 54.411011 L 80.536011 54.740997 C 80.048004 54.981995 79.584991 55.282013 79.053009 55.519012 L 79.002991 55.540985 C 78.825012 55.619995 78.615997 55.540009 78.536987 55.363007 C 78.483002 55.240997 78.502991 55.104004 78.57901 55.005005 C 78.94101 54.53299 79.334015 54.067993 79.772003 53.644012 C 80.259003 53.281006 80.701996 52.828003 81.279999 52.567993 C 82.351013 51.901001 83.666992 51.61499 84.954987 51.588989 C 86.252991 51.596008 87.535004 51.938995 88.625 52.554993 C 89.717987 53.17099 90.657013 53.975006 91.338013 55.023987 C 91.445007 55.187988 91.39801 55.407013 91.234009 55.514008 C 91.118011 55.588989 90.973999 55.588013 90.863007 55.52301 L 90.828003 55.498993 Z"/>
        </g>
        <path id="path9" fill="#fe6458" stroke="none" opacity="0.5" d="M 59.634995 64.244995 C 59.634995 66.609985 57.718002 68.527008 55.352997 68.527008 C 52.988007 68.527008 51.070999 66.609985 51.070999 64.244995 C 51.070999 61.880005 52.988007 59.963013 55.352997 59.963013 C 57.718002 59.963013 59.634995 61.880005 59.634995 64.244995 Z"/>
        <path id="path10" fill="#fe6458" stroke="none" opacity="0.5" d="M 83.764008 64.244995 C 83.764008 66.609985 85.681 68.527008 88.04599 68.527008 C 90.411011 68.527008 92.328003 66.609985 92.328003 64.244995 C 92.328003 61.880005 90.411011 59.963013 88.04599 59.963013 C 85.681 59.963013 83.764008 61.880005 83.764008 64.244995 Z"/>
        <path id="path11" fill="none" stroke="#08393d" stroke-linecap="round" stroke-linejoin="round" d="M 68.539001 52.567993 C 68.539001 52.567993 71.337997 60.966003 69.516006 66.863007 C 67.692993 72.76001 74.572998 71.355988 73.589996 66.300995"/>
        <path id="path12" fill="none" stroke="#08393d" stroke-linecap="round" stroke-linejoin="round" d="M 69.514999 66.863007 C 69.514999 66.863007 65.692001 68.722992 66.692001 69.196991 C 67.692001 69.67099 69.248993 69.196991 69.248993 69.196991"/>
        <path id="path13" fill="none" stroke="#08393d" stroke-linecap="round" stroke-linejoin="round" d="M 73.686005 66.863007 C 73.686005 66.863007 77.509003 68.722992 76.509003 69.196991 C 75.509003 69.67099 73.951996 69.196991 73.951996 69.196991"/>
        <g id="g5">
            <linearGradient id="linearGradient2" x1="33.4636" y1="72.7629" x2="46.3925" y2="72.7629" gradientUnits="userSpaceOnUse">
                <stop offset="1e-05" stop-color="#fe3158" stop-opacity="1"/>
                <stop offset="1" stop-color="#fe3158" stop-opacity="1"/>
            </linearGradient>
            <path id="path14" fill="none" stroke="url(#linearGradient2)" stroke-width="2" stroke-linecap="round" stroke-linejoin="round" d="M 45.393005 34.915009 C 41.326004 44.308014 41.841995 55.597992 42.001007 62.45401 C 42.212006 71.56601 47.266006 85.255005 37.578995 98.522003 C 34.235992 103.100006 33.953003 107.201996 35.014999 110.610992"/>
            <linearGradient id="linearGradient3" x1="57.8282" y1="21.3806" x2="80.9071" y2="21.3806" gradientUnits="userSpaceOnUse">
                <stop offset="1e-05" stop-color="#fe3158" stop-opacity="1"/>
                <stop offset="1" stop-color="#fe3158" stop-opacity="1"/>
            </linearGradient>
            <path id="path15" fill="none" stroke="url(#linearGradient3)" stroke-width="2" stroke-linecap="round" stroke-linejoin="round" d="M 79.907013 23.098999 C 79.907013 23.098999 69.514999 16.122009 58.828003 22.049988"/>
            <linearGradient id="linearGradient4" x1="49.2136" y1="33.044" x2="62.2626" y2="33.044" gradientUnits="userSpaceOnUse">
                <stop offset="1e-05" stop-color="#fe3158" stop-opacity="1"/>
                <stop offset="1" stop-color="#fe3158" stop-opacity="1"/>
            </linearGradient>
            <path id="path16" fill="none" stroke="url(#linearGradient4)" stroke-width="2" stroke-linecap="round" stroke-linejoin="round" d="M 61.263 27.058014 C 56.317001 28.199005 51.621002 31.390991 50.214005 39.028992"/>
            <linearGradient id="linearGradient5" x1="69.1487" y1="27.2446" x2="76.1809" y2="27.2446" gradientUnits="userSpaceOnUse">
                <stop offset="1e-05" stop-color="#fe3158" stop-opacity="1"/>
                <stop offset="1" stop-color="#fe3158" stop-opacity="1"/>
            </linearGradient>
            <path id="path17" fill="none" stroke="url(#linearGradient5)" stroke-width="2" stroke-linecap="round" stroke-linejoin="round" d="M 75.181 27.746002 C 75.181 27.746002 73.108994 27.100006 70.149002 26.742004"/>
            <linearGradient id="linearGradient6" x1="43.668" y1="92.6256" x2="50.577" y2="92.6256" gradientUnits="userSpaceOnUse">
                <stop offset="1e-05" stop-color="#fe3158" stop-opacity="1"/>
                <stop offset="1" stop-color="#fe3158" stop-opacity="1"/>
            </linearGradient>
            <path id="path18" fill="none" stroke="url(#linearGradient6)" stroke-width="2" stroke-linecap="round" stroke-linejoin="round" d="M 48.880005 82.868011 C 48.880005 82.868011 52.108994 88.623993 44.667999 102.382996"/>
            <linearGradient id="linearGradient7" x1="82.7644" y1="64.7998" x2="108.9878" y2="64.7998" gradientUnits="userSpaceOnUse">
                <stop offset="1e-05" stop-color="#fe3158" stop-opacity="1"/>
                <stop offset="1" stop-color="#fe3158" stop-opacity="1"/>
            </linearGradient>
            <path id="path19" fill="none" stroke="url(#linearGradient7)" stroke-width="2" stroke-linecap="round" stroke-linejoin="round" d="M 83.764008 24.55899 C 83.764008 24.55899 96.753998 17.260986 103.071991 28.514008 C 109.390015 39.766998 108.126007 59.783997 107.283997 75.993988 C 106.441986 92.20401 103.427002 100.627991 107.988007 107.367004"/>
            <linearGradient id="linearGradient8" x1="84.2951" y1="55.2618" x2="103.859" y2="55.2618" gradientUnits="userSpaceOnUse">
                <stop offset="1e-05" stop-color="#fe3158" stop-opacity="1"/>
                <stop offset="1" stop-color="#fe3158" stop-opacity="1"/>
            </linearGradient>
            <path id="path20" fill="none" stroke="url(#linearGradient8)" stroke-width="2" stroke-linecap="round" stroke-linejoin="round" d="M 85.295013 29.165985 C 85.295013 29.165985 101.247009 27.746002 102.562988 47.96701 C 103.769012 66.492004 100.877991 76.651001 101.088989 81.377991"/>
            <linearGradient id="linearGradient9" x1="98.8652" y1="89.8615" x2="101.5772" y2="89.8615" gradientUnits="userSpaceOnUse">
                <stop offset="1e-05" stop-color="#fe3158" stop-opacity="1"/>
                <stop offset="1" stop-color="#fe3158" stop-opacity="1"/>
            </linearGradient>
            <path id="path21" fill="none" stroke="url(#linearGradient9)" stroke-width="2" stroke-linecap="round" stroke-linejoin="round" d="M 100.576996 85.938995 C 100.576996 85.938995 99.071014 90.30899 100.440002 93.78299"/>
        </g>
        <path id="path22" fill="#fe6458" stroke="none" d="M 72.195007 80.622009 C 68.681 80.622009 66.942993 77.085999 69.945999 73.729004 C 70.860992 72.705994 71.604004 73.053986 72.195999 74.031006 C 72.195999 74.031006 73.266998 71.648987 74.742004 73.223999 C 76.216995 74.798004 78.088989 80.622009 72.195007 80.622009 Z"/>
        <path id="path23" fill="none" stroke="#08393d" stroke-linecap="round" stroke-linejoin="round" d="M 66.328003 75.860992 C 66.748993 76.177002 71.697998 79.230988 78.015991 74.808014"/>
        <path id="path24" fill="#f7cfa4" stroke="none" d="M 72.279007 90.454987 C 68.567001 90.454987 65.404999 89.704987 62.710999 88.399994 C 63.634995 92.747986 64.753006 101.936005 58.955994 106.039001 C 52.449005 110.644989 35.324005 111.679993 30.048996 131.072998 C 41.612 139.299011 55.740997 144.153015 71.013 144.153015 C 87.411011 144.153015 102.493988 138.559998 114.493011 129.199005 C 108.657013 111.605011 92.437988 110.493011 86.147003 106.040009 C 80.359009 101.942993 81.463989 92.777008 82.388 88.42099"/>
        <path id="path25" fill="#cecece" stroke="none" d="M 81.893005 98.210999 C 81.367004 94.588989 81.914001 90.803009 82.415009 88.436005 C 79.59201 89.722992 76.257004 90.471008 72.307999 90.471008 C 68.595001 90.471008 65.434006 89.721008 62.740005 88.415985 C 63.25 90.813995 63.811996 94.683014 63.246994 98.359985 C 67.311005 99.714996 74.014008 100.902008 81.893005 98.210999 Z"/>
        <path id="path26" fill="#ff655b" stroke="none" d="M 115.062012 131.071991 C 112.635986 122.153015 107.701996 117.122009 102.449005 113.835999 C 102.442993 113.839996 95.779999 118.009003 93.11499 127.67099 C 93.11499 127.67099 88.121002 130.667999 72.554993 130.67099 C 56.990005 130.667999 51.994995 127.67099 51.994995 127.67099 C 49.330002 118.009003 42.667007 113.839996 42.660995 113.835999 C 37.406998 117.122009 32.473999 122.153015 30.048004 131.071991 C 41.610992 139.298004 55.740005 144.152008 71.011993 144.152008 C 71.529007 144.152008 72.041 144.132996 72.554993 144.119995 C 73.069 144.132996 73.580994 144.152008 74.098007 144.152008 C 89.368988 144.152008 103.498993 139.298004 115.062012 131.071991 Z"/>
    </g>
</svg>
