<?xml version="1.0" encoding="UTF-8"?>
<!-- Generated by Pixelmator Pro 2.4.5 -->
<svg width="143" height="147" viewBox="0 0 143 147" xmlns="http://www.w3.org/2000/svg" xmlns:xlink="http://www.w3.org/1999/xlink">
    <g id="Group">
        <path id="Path" fill="#6273cd" stroke="none" d="M 72.376968 3.627975 C 111.451584 4.440903 142.468826 36.776123 141.655914 75.850739 C 140.843002 114.925354 108.507759 145.942596 69.433144 145.129669 C 30.358532 144.316772 -0.658689 111.981529 0.154225 72.906921 C 0.96714 33.832306 33.302357 2.815063 72.376968 3.627975 Z"/>
        <path id="path1" fill="#9b6538" stroke="none" d="M 97.396004 54.427002 C 97.350998 52.052002 97.202003 50.572998 97.202003 50.572998 C 97.202003 50.572998 84.575996 42.223999 81.206001 28.746002 C 81.206001 28.746002 70.035004 44.11499 47.713001 44.957001 C 47.713001 44.957001 47.486 47.154999 47.428001 50.587006 C 47.401001 52.233002 47.411999 54.160004 47.507 56.270996 C 48.009998 67.454987 50.849998 83.691986 62.572998 89.371002 C 65.267998 90.675995 68.429001 91.425995 72.141998 91.425995 C 76.091003 91.425995 79.426003 90.677002 82.249001 89.390991 C 95.709999 83.256012 97.417999 64.783997 97.410004 55.713989 C 97.408997 55.259003 97.403999 54.834015 97.396004 54.427002 Z"/>
        <g id="g1">
            <path id="path2" fill="#08393d" stroke="none" d="M 67.507004 49.554993 C 66.297997 48.753998 64.998001 48.118988 63.68 47.731995 C 62.359001 47.342987 61.008003 47.197998 59.655998 47.279999 C 58.302002 47.408997 56.962997 47.755005 55.633003 48.259003 C 54.970001 48.51001 54.332001 48.847992 53.654999 49.125 C 53.014999 49.472992 52.372002 49.830994 51.679001 50.149994 L 51.652 50.161987 C 51.510002 50.22699 51.342003 50.165009 51.276001 50.02301 C 51.226997 49.915985 51.25 49.795013 51.323997 49.713989 C 51.841003 49.14801 52.401001 48.613007 52.974998 48.084991 C 53.610001 47.640991 54.221001 47.135986 54.919998 46.765015 C 56.299004 45.981995 57.863998 45.47699 59.496002 45.296997 C 61.135002 45.175995 62.814003 45.450989 64.291 46.13501 C 65.772003 46.80899 67.053001 47.834991 67.928001 49.186005 C 68.013 49.316986 67.974998 49.492004 67.844002 49.576996 C 67.747002 49.640015 67.625 49.635986 67.533997 49.575989 L 67.507004 49.554993 Z"/>
        </g>
        <path id="path3" fill="#08393d" stroke="none" d="M 58.817001 58.312988 C 60.560997 58.312988 61.975998 56.898987 61.975998 55.153992 C 61.975998 54.755005 61.893997 54.377991 61.760002 54.027008 C 59.402 53.178986 57.314003 53.643005 55.771004 54.363007 C 55.705002 54.617004 55.658997 54.878998 55.658997 55.154999 C 55.657997 56.89801 57.072998 58.312988 58.817001 58.312988 Z"/>
        <g id="g2">
            <path id="path4" fill="#08393d" stroke="none" d="M 52.775002 56.019989 C 53.456001 54.971008 54.394997 54.165985 55.487999 53.550995 C 56.578003 52.934998 57.860001 52.592987 59.157997 52.584991 C 60.445 52.612 61.762001 52.897003 62.833 53.563995 C 63.411003 53.824005 63.853996 54.277008 64.341003 54.640015 C 64.779999 55.063995 65.171997 55.528992 65.533997 56.001007 C 65.653 56.156006 65.623001 56.377014 65.469002 56.496002 C 65.362999 56.576996 65.224998 56.588989 65.111 56.537994 L 65.060997 56.515991 C 64.528999 56.278992 64.065002 55.979004 63.578003 55.738007 L 62.843002 55.40799 C 62.606003 55.286011 62.364998 55.184998 62.112999 55.118011 C 61.864998 55.041992 61.624001 54.951996 61.384003 54.868011 L 60.643997 54.713989 C 60.402 54.640991 60.152 54.641998 59.905998 54.610992 C 59.660004 54.57901 59.414001 54.557007 59.166 54.582001 C 57.188004 54.549011 55.195 55.380005 53.285004 56.496002 L 53.250999 56.515991 C 53.082001 56.61499 52.864998 56.558014 52.765999 56.389008 C 52.695999 56.272003 52.704002 56.128998 52.775002 56.019989 Z"/>
        </g>
        <g id="g3">
            <path id="path5" fill="#08393d" stroke="none" d="M 76.894997 49.18399 C 77.769997 47.833008 79.051003 46.807007 80.531998 46.132996 C 82.010002 45.449005 83.689003 45.174988 85.327003 45.295013 C 86.959 45.473999 88.524002 45.980011 89.903 46.763 C 90.600998 47.134003 91.212997 47.639008 91.848 48.083008 C 92.421997 48.610992 92.982002 49.145996 93.499001 49.712006 C 93.603996 49.828003 93.596001 50.006989 93.481003 50.112 C 93.393997 50.19101 93.272003 50.205994 93.171997 50.160004 L 93.144997 50.147003 C 92.453003 49.82901 91.809998 49.471008 91.168999 49.122009 C 90.492996 48.843994 89.853996 48.506989 89.191002 48.256012 C 87.862 47.752014 86.522003 47.406006 85.167999 47.277008 C 83.815002 47.195007 82.464996 47.339996 81.143997 47.729004 C 79.825996 48.115997 78.526001 48.751007 77.317001 49.552002 L 77.288002 49.571014 C 77.157997 49.657013 76.982002 49.622009 76.896004 49.492004 C 76.832001 49.39801 76.835999 49.276001 76.894997 49.18399 Z"/>
        </g>
        <path id="path6" fill="#08393d" stroke="none" d="M 86.007004 58.312988 C 84.262001 58.312988 82.848 56.898987 82.848 55.153992 C 82.848 54.755005 82.93 54.377991 83.064003 54.027008 C 85.421997 53.178986 87.510002 53.643005 89.053001 54.363007 C 89.119003 54.617004 89.165001 54.878998 89.165001 55.154999 C 89.166 56.89801 87.751999 58.312988 86.007004 58.312988 Z"/>
        <g id="g4">
            <path id="path7" fill="#08393d" stroke="none" d="M 91.540001 56.498993 C 89.630997 55.382996 87.638 54.550995 85.658997 54.584991 C 85.411003 54.55899 85.165001 54.582001 84.918999 54.614014 C 84.672997 54.644012 84.422997 54.644012 84.181 54.71701 L 83.441002 54.871002 C 83.200996 54.954987 82.959999 55.045013 82.711998 55.121002 C 82.459999 55.188995 82.219002 55.289001 81.982002 55.411011 L 81.247002 55.740997 C 80.759003 55.981995 80.295998 56.282013 79.764 56.519012 L 79.713997 56.540985 C 79.536003 56.619995 79.327003 56.540009 79.248001 56.363007 C 79.194 56.240997 79.213997 56.104004 79.290001 56.005005 C 79.652 55.53299 80.044998 55.067993 80.483002 54.644012 C 80.970001 54.281006 81.413002 53.828003 81.990997 53.567993 C 83.061996 52.901001 84.377998 52.61499 85.666 52.588989 C 86.963997 52.596008 88.246002 52.938995 89.335999 53.554993 C 90.429001 54.17099 91.367996 54.975006 92.049004 56.023987 C 92.155998 56.187988 92.109001 56.407013 91.945 56.514008 C 91.829002 56.588989 91.684998 56.588013 91.573997 56.52301 L 91.540001 56.498993 Z"/>
        </g>
        <path id="path8" fill="#9b6538" stroke="none" d="M 39.868 60.203003 C 38.255001 63.428009 42.722 70.64801 49.046001 68.625 L 49.046001 68.619995 C 48.127998 65.006989 47.731998 61.296997 47.589001 58.131989 C 47.59 58.131989 41.480999 56.977997 39.868 60.203003 Z"/>
        <path id="path9" fill="#9b6538" stroke="none" d="M 104.942001 60.450989 C 103.452003 57.471985 97.809998 58.537994 97.809998 58.537994 C 97.809998 58.537994 97.622002 58.558014 97.364998 58.601013 C 97.344002 61.152008 97.115997 64.638 96.268997 68.165985 C 96.337997 68.187012 96.403999 68.207001 96.464996 68.225006 L 96.464996 68.230011 C 102.306 70.098999 106.431 63.431 104.942001 60.450989 Z"/>
        <path id="path10" fill="none" stroke="#08393d" stroke-linecap="round" stroke-linejoin="round" d="M 41.999001 62.60199 C 41.999001 62.60199 44.702 60.622009 46.584 63.220001 C 46.584 63.220001 43.230999 63.765015 44.466999 65.923004"/>
        <path id="path11" fill="none" stroke="#08393d" stroke-linecap="round" stroke-linejoin="round" d="M 102.875999 62.666992 C 102.875999 62.666992 100.378998 60.838013 98.640999 63.238007 C 98.640999 63.238007 101.737999 63.740997 100.597 65.734009"/>
        <path id="path12" fill="none" stroke="#000000" stroke-linecap="round" stroke-linejoin="round" d="M 101.425003 39.873993 C 100.126999 39.653992 99.269997 39.582001 99.269997 39.582001 C 99.269997 39.582001 100.171997 39.753998 101.425003 39.873993 Z"/>
        <path id="path13" fill="none" stroke="#08393d" stroke-linecap="round" stroke-linejoin="round" d="M 69.516998 61.523987 C 69.516998 61.523987 66.563004 65.256989 70.336998 66.019989 C 70.824997 67.009003 71.834 67.695007 73.011002 67.695007 C 74.188004 67.695007 75.196999 67.009003 75.684998 66.019989 C 79.458 65.256989 76.504997 61.523987 76.504997 61.523987"/>
        <path id="path14" fill="none" stroke="#08393d" stroke-linecap="round" stroke-linejoin="round" d="M 65.491997 72.437988 C 65.491997 72.437988 73.010002 76.989014 80.528999 72.437988"/>
        <path id="path15" fill="none" stroke="#08393d" stroke-linecap="round" stroke-linejoin="round" d="M 68.025002 75.882996 C 68.025002 75.882996 73.011002 78.901001 77.997002 75.882996"/>
        <path id="path16" fill="none" stroke="#000000" stroke-linecap="round" stroke-linejoin="round" d="M 51.502998 34.730011 C 51.996002 34.167999 46.098999 27.677002 56.208 28.747009 C 56.208 28.747009 52.557999 22.937012 54.664001 22.656006 C 56.769997 22.375 60.841003 25.744995 60.841003 25.744995 C 60.841003 25.744995 59.858002 17.462006 62.806 17.60199 C 65.753998 17.742004 67.017998 22.937012 67.017998 22.937012"/>
        <path id="path17" fill="none" stroke="#000000" stroke-linecap="round" stroke-linejoin="round" d="M 80.528999 24.059998 C 80.528999 24.059998 86.251999 18.303986 86.954002 19.566986 C 87.655998 20.830994 85.213997 24.059998 85.213997 24.059998 C 85.213997 24.059998 94.492996 21.53299 96.268997 23.217987 C 98.044998 24.903015 90.463997 27.485992 90.463997 27.485992 C 90.463997 27.485992 98.185997 32.062988 98.185997 34.730988 C 98.185997 37.398987 90.042999 34.730988 90.042999 34.730988"/>
        <path id="path18" fill="none" stroke="#000000" stroke-linecap="round" stroke-linejoin="round" d="M 61.857002 34.966003 C 61.857002 34.966003 60.724998 27.665009 64.222 30.753998 C 64.222 30.753998 63.648003 23.872986 66.175003 26.962006"/>
        <path id="path19" fill="#9b6538" stroke="none" d="M 86.035004 107.039001 C 80.247002 102.941986 81.351997 93.776001 82.276001 89.420013 C 79.453003 90.705994 76.117996 91.454987 72.168999 91.454987 C 68.456001 91.454987 65.294998 90.704987 62.600998 89.399994 C 63.525002 93.747986 64.641998 102.936005 58.846001 107.039001 C 52.338997 111.644989 35.214001 112.679993 29.938999 132.072998 C 41.501999 140.299011 55.630997 145.153015 70.903 145.153015 C 87.301003 145.153015 102.384003 139.559998 114.382004 130.199005 C 108.543999 112.604004 92.325996 111.492004 86.035004 107.039001 Z"/>
        <path id="path20" fill="#7f502d" stroke="none" d="M 81.726997 99.210999 C 81.200996 95.588989 81.748001 91.803009 82.249001 89.436005 C 79.426003 90.722992 76.091003 91.471008 72.141998 91.471008 C 68.43 91.471008 65.267998 90.721008 62.572998 89.415985 C 63.083 91.813995 63.644997 95.683014 63.080002 99.359985 C 67.144997 100.714996 73.848 101.902008 81.726997 99.210999 Z"/>
        <linearGradient id="linearGradient1" x1="72.3217" y1="54.427" x2="72.3217" y2="0.5437" gradientUnits="userSpaceOnUse">
            <stop offset="1e-05" stop-color="#200e00" stop-opacity="1"/>
            <stop offset="1" stop-color="#693500" stop-opacity="1"/>
        </linearGradient>
        <path id="path21" fill="url(#linearGradient1)" stroke="none" d="M 113.910004 47.987 C 113.277 42.54599 105.341003 40.537994 101.426003 39.875 C 100.171997 39.755005 99.271004 39.583008 99.271004 39.583008 C 99.271004 39.583008 100.127998 39.654999 101.426003 39.875 C 104.526001 40.171997 109.789001 40.14801 108.972 36.403992 C 107.823997 31.144989 97.410004 28.878998 97.410004 28.878998 C 97.410004 28.878998 109.838997 27.747986 108.924004 23.753998 C 108.009003 19.76001 88.760002 19.72699 88.760002 19.72699 C 88.760002 19.72699 96.362 14.464996 93.042 10.670013 C 89.722 6.875 79.636002 17.684998 79.636002 17.684998 C 79.636002 17.684998 83.445 5.609985 81.119003 5.609985 C 78.792999 5.609985 75.765999 14.464996 75.765999 14.464996 C 75.765999 14.464996 76.706001 0.234009 69.588997 0.549988 C 62.472 0.865997 65.297997 16.363007 65.297997 16.363007 C 65.297997 16.363007 62.105003 6.55899 59.165001 8.457001 C 56.223999 10.354004 59.165001 19.727997 59.165001 19.727997 C 49.203999 13.289001 44.978001 16.046997 44.978001 16.046997 C 40.205002 21.423004 51.504997 25.828003 51.504997 25.828003 C 51.504997 25.828003 33.185001 26.799988 30.938999 29.656006 C 28.693001 32.511993 43.84 34.333008 43.84 34.333008 C 43.84 34.333008 31.500999 40.557007 33.044998 44.036011 C 34.943001 48.311005 43.028999 49.985992 47.43 50.591003 C 47.487 47.15799 47.715 44.960999 47.715 44.960999 C 70.038002 44.118988 81.208 28.75 81.208 28.75 C 84.577003 42.227997 97.204002 50.576996 97.204002 50.576996 C 97.204002 50.576996 97.352997 52.054993 97.398003 54.431 C 103.568001 54.251007 114.516998 53.205994 113.910004 47.987 Z"/>
        <linearGradient id="linearGradient2" x1="72.6197" y1="89.4157" x2="72.6197" y2="81.037" gradientUnits="userSpaceOnUse">
            <stop offset="1e-05" stop-color="#200e00" stop-opacity="1"/>
            <stop offset="1" stop-color="#693500" stop-opacity="1"/>
        </linearGradient>
        <path id="path22" fill="url(#linearGradient2)" stroke="none" d="M 69.966003 81.036987 C 69.966003 81.036987 72.492996 81.529999 75.441002 81.036987 C 75.441002 81.036987 79.334 84.60199 77.105003 85.528992 C 75.844002 86.053986 74.738998 84.079987 74.738998 84.079987 C 74.738998 84.079987 76.474998 89.415985 73.010002 89.415985 C 69.543999 89.415985 70.667999 84.079987 70.667999 84.079987 C 70.667999 84.079987 68.980003 86.528992 67.718002 85.226013 C 66.456001 83.924011 69.966003 81.036987 69.966003 81.036987 Z"/>
        <path id="path23" fill="#f2dd20" stroke="none" d="M 98.023003 112.5 C 95.557999 111.334015 93.156998 110.421997 91.036003 109.549011 C 84.306 113.931 77.391998 115.488007 72.158997 115.401001 C 66.983002 115.487 60.164001 113.960999 53.503998 109.687988 C 51.306999 110.584015 48.827999 111.533997 46.301998 112.766998 C 46.507 120.496002 46.012001 133.229004 42.457001 139.174011 C 44.34 140.003998 46.265999 140.753998 48.230999 141.420013 C 48.563999 141.53299 48.895 141.649994 49.230999 141.757996 C 49.789001 141.937988 50.352997 142.105011 50.917999 142.270996 C 51.375999 142.406006 51.834999 142.536987 52.295998 142.661987 C 52.814003 142.803009 53.333 142.94101 53.856003 143.071014 C 54.434998 143.213989 55.018997 143.345001 55.603996 143.473999 C 56.030998 143.567993 56.455002 143.670013 56.885002 143.756989 C 57.872002 143.954987 58.865997 144.132996 59.866997 144.290009 C 60.220001 144.345001 60.577003 144.388 60.931 144.437988 C 61.660004 144.540985 62.390999 144.635986 63.125999 144.71701 C 63.516998 144.76001 63.910004 144.798004 64.303001 144.834015 C 65.050003 144.903015 65.801003 144.959015 66.555 145.005005 C 66.903 145.026001 67.25 145.050995 67.598999 145.066986 C 68.694 145.117004 69.793999 145.151001 70.902 145.151001 C 72.033997 145.151001 73.157997 145.118011 74.277 145.06601 C 74.651001 145.048004 75.022003 145.018005 75.394997 144.993988 C 76.136002 144.946991 76.875999 144.894989 77.611 144.825012 C 78.054001 144.78299 78.494003 144.734009 78.934998 144.68399 C 79.593002 144.609985 80.248001 144.527008 80.900002 144.43399 C 81.367996 144.368011 81.834999 144.299988 82.299004 144.223999 C 82.916 144.123993 83.528999 144.010986 84.140999 143.894989 C 84.617996 143.804993 85.096001 143.718994 85.569 143.618988 C 86.165001 143.493988 86.752998 143.350006 87.343002 143.209991 C 88.338997 142.971985 89.325996 142.713989 90.305 142.434998 C 90.727997 142.315002 91.153999 142.203003 91.572998 142.075012 C 92.212997 141.880005 92.843002 141.665009 93.474998 141.451996 C 93.829002 141.333008 94.183998 141.217987 94.536003 141.092987 C 95.192001 140.859985 95.841003 140.614014 96.487 140.363007 C 96.788002 140.246002 97.089996 140.127991 97.389 140.006989 C 98.071999 139.730011 98.750999 139.445007 99.424004 139.14801 C 99.640999 139.052002 99.856003 138.953003 100.071999 138.855011 C 100.711998 138.565002 101.347 138.265991 101.976997 137.958008 C 98.275002 132.347992 97.796997 120.299011 98.023003 112.5 Z"/>
        <path id="path24" fill="none" stroke="#08393d" stroke-linecap="round" stroke-linejoin="round" d="M 49.997002 111.391998 C 49.997002 111.391998 69.538002 126.920013 94.288002 111.391998"/>
        <path id="path25" fill="#88c067" stroke="none" d="M 48.230999 141.420013 C 48.563999 141.53299 48.895 141.649994 49.230999 141.757996 C 49.789001 141.937988 50.352997 142.105011 50.917999 142.270996 C 51.375999 142.406006 51.834999 142.536987 52.295998 142.661987 C 52.814003 142.803009 53.333 142.94101 53.856003 143.071014 C 54.434998 143.213989 55.018997 143.345001 55.603996 143.473999 C 56.030998 143.567993 56.455002 143.670013 56.885002 143.756989 C 57.872002 143.954987 58.865997 144.132996 59.866997 144.290009 C 60.220001 144.345001 60.577003 144.388 60.931 144.437988 C 61.660004 144.540985 62.390999 144.635986 63.125999 144.71701 C 63.516998 144.76001 63.910004 144.798004 64.303001 144.834015 C 65.050003 144.903015 65.801003 144.959015 66.555 145.005005 C 66.903 145.026001 67.25 145.050995 67.598999 145.066986 C 68.694 145.117004 69.793999 145.151001 70.902 145.151001 C 72.033997 145.151001 73.157997 145.118011 74.277 145.06601 C 74.651001 145.048004 75.022003 145.018005 75.394997 144.993988 C 76.136002 144.946991 76.875999 144.894989 77.611 144.825012 C 78.054001 144.78299 78.494003 144.734009 78.934998 144.68399 C 79.593002 144.609985 80.248001 144.527008 80.900002 144.43399 C 81.367996 144.368011 81.834999 144.299988 82.299004 144.223999 C 82.916 144.123993 83.528999 144.010986 84.140999 143.894989 C 84.617996 143.804993 85.096001 143.718994 85.569 143.618988 C 86.165001 143.493988 86.752998 143.350006 87.343002 143.209991 C 88.338997 142.971985 89.325996 142.713989 90.305 142.434998 C 90.727997 142.315002 91.153999 142.203003 91.572998 142.075012 C 92.212997 141.880005 92.843002 141.665009 93.474998 141.451996 C 93.829002 141.333008 94.183998 141.217987 94.536003 141.092987 C 95.192001 140.859985 95.841003 140.614014 96.487 140.363007 C 96.788002 140.246002 97.089996 140.127991 97.389 140.006989 C 98.071999 139.730011 98.750999 139.445007 99.424004 139.14801 C 99.640999 139.052002 99.856003 138.953003 100.071999 138.855011 C 100.711998 138.565002 101.347 138.265991 101.976997 137.958008 C 100.910004 136.338989 100.116997 134.174988 99.526001 131.740997 C 69.056 139.747986 51.087997 134.68399 44.911999 132.213013 C 44.331001 134.937012 43.536999 137.369995 42.459 139.173004 C 44.34 140.003998 46.265999 140.753998 48.230999 141.420013 Z"/>
        <path id="path26" fill="#08393d" stroke="none" d="M 96.830002 140.255005 L 94.742996 137.730988 L 93.003998 138.118988 L 92.014999 141.951996 C 92.502998 141.796997 92.988998 141.639008 93.473 141.476013 C 93.739998 141.385986 94.007004 141.296997 94.273003 141.205994 L 94.450996 140.515991 L 94.850998 140.998993 C 95.399002 140.800995 95.945 140.598999 96.487 140.389008 C 96.600998 140.346008 96.714996 140.299988 96.830002 140.255005 Z"/>
        <path id="path27" fill="#08393d" stroke="none" d="M 88.93 142.813995 L 86.055 139.289001 L 84.323997 139.628998 L 82.953003 144.121002 C 83.348 144.052002 83.744003 143.984985 84.137001 143.911011 C 84.481003 143.846008 84.824997 143.779999 85.168999 143.713013 L 85.690002 142.006012 L 86.790001 143.355011 C 86.973 143.312012 87.156998 143.272003 87.338997 143.229004 C 87.874001 143.101013 88.400002 142.951996 88.93 142.813995 Z"/>
        <path id="path28" fill="#08393d" stroke="none" d="M 72.012001 145.123993 L 69.963997 140.342987 L 68.212997 140.182007 L 65.075996 144.888 C 65.566002 144.928009 66.056 144.971008 66.549004 145.002014 C 66.822998 145.019012 67.096001 145.036011 67.370003 145.052002 L 68.851997 142.82901 L 69.834999 145.123993 C 70.189003 145.131012 70.540001 145.152008 70.896004 145.152008 C 71.271004 145.151001 71.639 145.130005 72.012001 145.123993 Z"/>
        <path id="path29" fill="#08393d" stroke="none" d="M 53.741997 143.02301 L 52.477997 138.285004 L 50.736 137.911987 L 47.977001 141.303009 C 48.062 141.332001 48.145 141.365997 48.23 141.394989 C 48.563 141.507996 48.894001 141.626007 49.229 141.734009 C 49.487 141.816986 49.749001 141.893005 50.009003 141.971985 L 51.050003 140.692993 L 51.510002 142.417999 C 51.771004 142.493011 52.030998 142.570007 52.292999 142.640991 C 52.775002 142.77301 53.257004 142.901001 53.741997 143.02301 Z"/>
        <path id="path30" fill="#08393d" stroke="none" d="M 80.257004 144.524994 L 77.285004 140.144012 L 75.535004 140.319 L 73.538002 145.087006 C 73.781998 145.078003 74.028999 145.079987 74.272003 145.069 C 74.646004 145.052002 75.016998 145.022003 75.389999 144.998993 C 75.512001 144.990997 75.633003 144.980011 75.754997 144.971985 L 76.666 142.795013 L 78.017998 144.789001 C 78.321999 144.757996 78.625999 144.72699 78.929001 144.692993 C 79.374001 144.643005 79.815002 144.583008 80.257004 144.524994 Z"/>
        <path id="path31" fill="#08393d" stroke="none" d="M 62.720001 144.657013 L 61.169998 139.722992 L 59.435997 139.397003 L 56.092003 143.566986 C 56.355003 143.627014 56.616997 143.688995 56.882004 143.742004 C 57.353996 143.838013 57.834 143.912994 58.309998 143.998993 L 59.824997 142.109985 L 60.536003 144.372009 C 60.667 144.390015 60.796997 144.40799 60.928001 144.427002 C 61.522003 144.511993 62.120003 144.585999 62.720001 144.657013 Z"/>
        <g id="g5">
            <path id="path32" fill="#08393d" stroke="none" d="M 96.830002 140.255005 L 94.742996 137.730988 L 93.003998 138.118988 L 92.014999 141.951996 C 92.502998 141.796997 92.988998 141.639008 93.473 141.476013 C 93.739998 141.385986 94.007004 141.296997 94.273003 141.205994 L 94.450996 140.515991 L 94.850998 140.998993 C 95.399002 140.800995 95.945 140.598999 96.487 140.389008 C 96.600998 140.346008 96.714996 140.299988 96.830002 140.255005 Z"/>
            <path id="path33" fill="#08393d" stroke="none" d="M 88.93 142.813995 L 86.055 139.289001 L 84.323997 139.628998 L 82.953003 144.121002 C 83.348 144.052002 83.744003 143.984985 84.137001 143.911011 C 84.481003 143.846008 84.824997 143.779999 85.168999 143.713013 L 85.690002 142.006012 L 86.790001 143.355011 C 86.973 143.312012 87.156998 143.272003 87.338997 143.229004 C 87.874001 143.101013 88.400002 142.951996 88.93 142.813995 Z"/>
            <path id="path34" fill="#08393d" stroke="none" d="M 72.012001 145.123993 L 69.963997 140.342987 L 68.212997 140.182007 L 65.075996 144.888 C 65.566002 144.928009 66.056 144.971008 66.549004 145.002014 C 66.822998 145.019012 67.096001 145.036011 67.370003 145.052002 L 68.851997 142.82901 L 69.834999 145.123993 C 70.189003 145.131012 70.540001 145.152008 70.896004 145.152008 C 71.271004 145.151001 71.639 145.130005 72.012001 145.123993 Z"/>
            <path id="path35" fill="#08393d" stroke="none" d="M 53.741997 143.02301 L 52.477997 138.285004 L 50.736 137.911987 L 47.977001 141.303009 C 48.062 141.332001 48.145 141.365997 48.23 141.394989 C 48.563 141.507996 48.894001 141.626007 49.229 141.734009 C 49.487 141.816986 49.749001 141.893005 50.009003 141.971985 L 51.050003 140.692993 L 51.510002 142.417999 C 51.771004 142.493011 52.030998 142.570007 52.292999 142.640991 C 52.775002 142.77301 53.257004 142.901001 53.741997 143.02301 Z"/>
            <path id="path36" fill="#08393d" stroke="none" d="M 80.257004 144.524994 L 77.285004 140.144012 L 75.535004 140.319 L 73.538002 145.087006 C 73.781998 145.078003 74.028999 145.079987 74.272003 145.069 C 74.646004 145.052002 75.016998 145.022003 75.389999 144.998993 C 75.512001 144.990997 75.633003 144.980011 75.754997 144.971985 L 76.666 142.795013 L 78.017998 144.789001 C 78.321999 144.757996 78.625999 144.72699 78.929001 144.692993 C 79.374001 144.643005 79.815002 144.583008 80.257004 144.524994 Z"/>
            <path id="path37" fill="#08393d" stroke="none" d="M 62.720001 144.657013 L 61.169998 139.722992 L 59.435997 139.397003 L 56.092003 143.566986 C 56.355003 143.627014 56.616997 143.688995 56.882004 143.742004 C 57.353996 143.838013 57.834 143.912994 58.309998 143.998993 L 59.824997 142.109985 L 60.536003 144.372009 C 60.667 144.390015 60.796997 144.40799 60.928001 144.427002 C 61.522003 144.511993 62.120003 144.585999 62.720001 144.657013 Z"/>
        </g>
    </g>
</svg>
