<?xml version="1.0" encoding="UTF-8"?>
<!-- Generated by Pixelmator Pro 2.4.5 -->
<svg width="145" height="145" viewBox="0 0 145 145" xmlns="http://www.w3.org/2000/svg" xmlns:xlink="http://www.w3.org/1999/xlink">
    <g id="Group">
        <path id="Path" fill="#f2dd20" stroke="none" d="M 78.133575 2.072632 C 117.08313 5.296936 146.044159 39.485565 142.819855 78.43512 C 139.595551 117.384674 105.406891 146.345734 66.457367 143.121429 C 27.507813 139.897125 -1.453247 105.708435 1.771057 66.758911 C 4.995361 27.809357 39.184021 -1.151672 78.133575 2.072632 Z"/>
        <linearGradient id="linearGradient1" x1="72.0989" y1="121.2802" x2="72.0989" y2="13.4852" gradientUnits="userSpaceOnUse">
            <stop offset="1e-05" stop-color="#6172cc" stop-opacity="1"/>
            <stop offset="0.3834" stop-color="#9d6eff" stop-opacity="1"/>
            <stop offset="0.4741" stop-color="#9d6eff" stop-opacity="1"/>
        </linearGradient>
        <path id="path1" fill="url(#linearGradient1)" stroke="none" d="M 107.860992 98.734985 C 107.860992 98.734985 117.811005 95.033997 121.690002 84.345001 C 128.289001 66.162994 117.880005 61.705994 117.880005 61.705994 C 117.880005 61.705994 125.199005 57.421997 119.864014 44.505981 C 114.528992 31.589996 104.561005 37.875 104.561005 37.875 C 104.561005 37.875 112.423004 31.115997 105.403015 22.351013 C 98.382996 13.587006 81.898987 20.411011 81.898987 20.411011 C 81.898987 20.411011 59.354004 4.746002 46.717987 20.537994 C 34.082001 36.330994 41.945007 38.71701 41.945007 38.71701 C 41.945007 38.71701 30.713013 43.140015 32.39801 49.140991 C 34.083008 55.143005 18.359009 56.265991 26.501007 69.041992 C 26.501007 69.041992 12.037994 90.104004 27.342987 96.138 C 41.944 101.893982 30.226013 123.705994 70.162994 121.057983 C 70.162994 121.057983 79.52301 119.372986 81.89801 112.424011 C 84.274994 105.475006 99.859009 118.531006 107.860992 98.734985 Z"/>
        <path id="path2" fill="none" stroke="#0b5059" stroke-linecap="round" stroke-linejoin="round" d="M 45.315002 41.027008 C 45.315002 41.027008 36.890991 44.239014 38.575989 53.166016 C 40.260986 62.093018 32.048004 58.091003 33.522003 69.041992 C 34.996002 79.992981 23.268005 82.098999 33.343994 91.153992"/>
        <path id="path3" fill="none" stroke="#0b5059" stroke-linecap="round" stroke-linejoin="round" d="M 45.315002 94.149994 C 45.315002 94.149994 37.519989 86.776978 43.48999 73.955994"/>
        <path id="path4" fill="none" stroke="#0b5059" stroke-linecap="round" stroke-linejoin="round" d="M 38.365997 97.050995 C 38.365997 97.050995 43.251007 112.815002 60.210999 115.502991"/>
        <path id="path5" fill="none" stroke="#0b5059" stroke-linecap="round" stroke-linejoin="round" d="M 41.239014 97.050995 C 41.239014 97.050995 44.578003 105.158997 51.949005 107.475006"/>
        <path id="path6" fill="none" stroke="#0b5059" stroke-linecap="round" stroke-linejoin="round" d="M 50.230988 28.238007 C 44.181 37.656006 47.701996 37.973999 47.701996 37.973999"/>
        <path id="path7" fill="none" stroke="#0b5059" stroke-linecap="round" stroke-linejoin="round" d="M 79.415009 23.574005 C 79.415009 23.574005 66.118988 16.48999 56.803009 21.141998"/>
        <path id="path8" fill="none" stroke="#0b5059" stroke-linecap="round" stroke-linejoin="round" d="M 76.942993 25.380981 C 76.942993 25.380981 62.067993 21.325012 57.386993 31.604004"/>
        <path id="path9" fill="none" stroke="#0b5059" stroke-linecap="round" stroke-linejoin="round" d="M 66.321991 29.658997 C 65.138 30.227997 63.955994 31.188995 63.028015 32.781982"/>
        <path id="path10" fill="none" stroke="#0b5059" stroke-linecap="round" stroke-linejoin="round" d="M 71.437988 29.027008 C 71.437988 29.027008 70.605011 28.833008 69.415009 28.893982"/>
        <path id="path11" fill="none" stroke="#0b5059" stroke-linecap="round" stroke-linejoin="round" d="M 84.242004 23.574005 C 84.242004 23.574005 96.725006 20.196991 100.069 24.59201 C 105.403992 31.604004 100.069 35.346985 100.069 35.346985"/>
        <path id="path12" fill="none" stroke="#0b5059" stroke-linecap="round" stroke-linejoin="round" d="M 85.869995 26.291992 C 85.869995 26.291992 94.171997 25.023987 95.962006 29.658997"/>
        <path id="path13" fill="none" stroke="#0b5059" stroke-linecap="round" stroke-linejoin="round" d="M 117.075012 70.299988 C 118.290985 74.393005 117.903992 79.536987 113.548004 85.468018 C 104.808014 97.365997 95.963013 93.575989 95.963013 93.575989"/>
        <path id="path14" fill="none" stroke="#0b5059" stroke-linecap="round" stroke-linejoin="round" d="M 102.440002 41.665009 C 102.440002 41.665009 111.019989 40.260986 114.248993 49.140991 C 115.725006 53.199005 115.494995 56.265015 115.182007 58.338989"/>
        <path id="path15" fill="none" stroke="#0b5059" stroke-linecap="round" stroke-linejoin="round" d="M 94.714996 90.382019 C 94.714996 90.382019 106.808014 90.522003 111.019989 78.026978"/>
        <path id="path16" fill="#c48349" stroke="none" d="M 87.397003 105.264008 C 81.609009 101.166992 82.713989 92.001007 83.638 87.64502 C 80.815002 88.931 77.480011 89.679993 73.531006 89.679993 C 69.819 89.679993 66.657013 88.929993 63.963013 87.625 C 64.886993 91.973022 66.003998 101.161011 60.208008 105.264008 C 53.700989 109.869995 36.575989 110.904999 31.300995 130.298004 C 42.864014 138.523987 56.993011 143.377991 72.265015 143.377991 C 88.662994 143.377991 103.746002 137.785004 115.743988 128.424011 C 109.907013 110.828979 93.688995 109.71698 87.397003 105.264008 Z"/>
        <path id="path17" fill="#c48349" stroke="none" d="M 98.595001 48.825012 C 98.595001 48.825012 85.968994 40.476013 82.598999 26.997986 C 82.598999 26.997986 71.428009 42.367004 49.105988 43.208984 C 49.105988 43.208984 45.415009 78.636993 63.966003 87.623993 C 66.660004 88.929016 69.821991 89.679016 73.535004 89.679016 C 77.484009 89.679016 80.819 88.929993 83.641998 87.643982 C 101.742004 79.39502 98.595001 48.825012 98.595001 48.825012 Z"/>
        <g id="g1">
            <path id="path18" fill="#08393d" stroke="none" d="M 78.287994 47.436005 C 79.162994 46.084991 80.444 45.05899 81.924988 44.38501 C 83.403015 43.700989 85.082001 43.425995 86.720001 43.546997 C 88.35199 43.726013 89.916992 44.231995 91.29599 45.015015 C 91.993988 45.385986 92.605988 45.890991 93.240997 46.334991 C 93.815002 46.863007 94.375 47.39801 94.891998 47.963989 C 94.997009 48.07901 94.989014 48.259003 94.873993 48.364014 C 94.787994 48.442993 94.665009 48.458008 94.565002 48.412994 L 94.537994 48.399994 C 93.846008 48.082001 93.203003 47.723999 92.562988 47.375 C 91.886993 47.096985 91.247986 46.76001 90.584991 46.509003 C 89.256012 46.005005 87.915985 45.658997 86.562012 45.529999 C 85.209015 45.447998 83.859009 45.593018 82.537994 45.981995 C 81.220001 46.369019 79.920013 47.003998 78.710999 47.804993 L 78.682007 47.824005 C 78.552002 47.910004 78.376007 47.875 78.290009 47.744995 C 78.226013 47.648987 78.229004 47.527008 78.287994 47.436005 Z"/>
        </g>
        <path id="path19" fill="#fe6458" stroke="none" opacity="0.5" d="M 61.740997 63.496002 C 61.740997 65.860992 59.824005 67.778015 57.459015 67.778015 C 55.093994 67.778015 53.177002 65.860992 53.177002 63.496002 C 53.177002 61.130981 55.093994 59.213989 57.459015 59.213989 C 59.824005 59.213989 61.740997 61.130981 61.740997 63.496002 Z"/>
        <path id="path20" fill="#fe6458" stroke="none" opacity="0.5" d="M 85.869995 63.496002 C 85.869995 65.860992 87.786987 67.778015 90.152008 67.778015 C 92.516998 67.778015 94.43399 65.860992 94.43399 63.496002 C 94.43399 61.130981 92.516998 59.213989 90.152008 59.213989 C 87.786987 59.213989 85.869995 61.130981 85.869995 63.496002 Z"/>
        <path id="path21" fill="none" stroke="#08393d" stroke-linecap="round" stroke-linejoin="round" d="M 70.165009 64.934998 C 70.165009 64.934998 72.084015 69.041992 73.915009 69.041992 C 75.746002 69.041992 77.406006 65.138 77.431 63.496002 C 77.484009 59.903992 75.220001 55.352997 76.799011 49.140991"/>
        <path id="path22" fill="#fe6458" stroke="none" d="M 73.798004 73.434998 L 73.798004 73.434998 L 73.798004 73.434998 C 77.390991 71.59198 79.971008 75.554016 79.971008 75.554016 C 78.588989 80.069 73.798004 78.778992 73.798004 78.778992 C 73.798004 78.778992 69.006989 80.069 67.625 75.554016 C 67.625 75.554016 70.204987 71.59198 73.798004 73.434998 Z"/>
        <path id="path23" fill="#08393d" stroke="none" d="M 87.550995 56.563995 C 89.326996 56.563995 90.766998 55.149994 90.766998 53.404999 C 90.766998 53.007019 90.68399 52.628998 90.546997 52.278015 C 88.147003 51.429993 86.022003 51.893982 84.450989 52.614014 C 84.384003 52.867981 84.337006 53.130005 84.337006 53.404999 C 84.335999 55.149994 85.774994 56.563995 87.550995 56.563995 Z"/>
        <g id="g2">
            <path id="path24" fill="#08393d" stroke="none" d="M 92.19101 53.460999 C 91.230988 53.233002 90.373993 52.955017 89.497009 52.876007 C 88.632996 52.759003 87.779999 52.763 86.940002 52.906006 C 85.252014 53.132996 83.596008 53.869019 81.912994 54.752014 L 81.878998 54.769989 C 81.70401 54.862 81.489014 54.794006 81.397003 54.619995 C 81.337006 54.505005 81.346008 54.372009 81.40799 54.268982 C 81.968994 53.346008 82.743011 52.63501 83.636993 52.057983 C 84.528992 51.480011 85.56601 51.097992 86.64801 50.928009 C 87.188995 50.838989 87.743988 50.851013 88.290009 50.865997 C 88.833008 50.955994 89.381012 51 89.888 51.209991 C 90.928009 51.522003 91.826996 52.143982 92.561005 52.867004 C 92.701996 53.005981 92.703003 53.231995 92.565002 53.372986 C 92.473999 53.464996 92.346008 53.497986 92.227997 53.470001 L 92.19101 53.460999 Z"/>
        </g>
        <path id="path25" fill="#08393d" stroke="none" d="M 87.641998 50.666016 C 87.641998 50.666016 89.5 52.450012 93.196991 50.056 C 93.196991 50.056 92.256989 55.912994 87.641998 50.666016 Z"/>
        <g id="g3">
            <path id="path26" fill="#08393d" stroke="none" d="M 68.901001 47.806 C 67.691986 47.005005 66.391998 46.369995 65.074005 45.983002 C 63.752991 45.593018 62.402008 45.449005 61.049011 45.531006 C 59.695007 45.660004 58.355988 46.007019 57.026001 46.51001 C 56.363007 46.760986 55.725006 47.098999 55.048004 47.376007 C 54.40799 47.723999 53.765015 48.082001 53.072998 48.401001 L 53.04599 48.412994 C 52.903992 48.477997 52.735992 48.416016 52.670013 48.273987 C 52.621002 48.166992 52.644012 48.04599 52.717987 47.964996 C 53.234985 47.398987 53.795013 46.864014 54.368988 46.335999 C 55.003998 45.891998 55.61499 45.386993 56.313995 45.015991 C 57.692993 44.233002 59.257996 43.727997 60.890015 43.548004 C 62.528992 43.427002 64.208008 43.701996 65.684998 44.385986 C 67.165985 45.059998 68.446991 46.085999 69.321991 47.437012 C 69.407013 47.567993 69.368988 47.742981 69.238007 47.828003 C 69.140991 47.890991 69.019012 47.886993 68.928009 47.826996 L 68.901001 47.806 Z"/>
        </g>
        <path id="path27" fill="#08393d" stroke="none" d="M 60.061005 56.563995 C 58.285004 56.563995 56.845001 55.149994 56.845001 53.404999 C 56.845001 53.007019 56.928009 52.628998 57.065002 52.278015 C 59.464996 51.429993 61.589996 51.893982 63.161011 52.614014 C 63.227997 52.867981 63.274994 53.130005 63.274994 53.404999 C 63.276001 55.149994 61.837006 56.563995 60.061005 56.563995 Z"/>
        <g id="g4">
            <path id="path28" fill="#08393d" stroke="none" d="M 55.052002 52.867004 C 55.786011 52.143982 56.68399 51.52301 57.725006 51.209991 C 58.231995 51 58.779999 50.955994 59.321991 50.865997 C 59.868011 50.851013 60.423004 50.838989 60.963989 50.928009 C 62.04599 51.097992 63.083008 51.480011 63.975006 52.057983 C 64.869995 52.63501 65.644012 53.346008 66.20401 54.268982 C 66.306 54.437012 66.252991 54.656982 66.084015 54.759003 C 65.972992 54.825989 65.839996 54.825989 65.733002 54.769989 L 65.697998 54.752014 C 64.015015 53.869019 62.359009 53.132996 60.67099 52.906006 C 59.830994 52.763 58.979004 52.759003 58.114014 52.876007 C 57.235992 52.955017 56.378998 53.233002 55.420013 53.460999 L 55.38501 53.468994 C 55.192993 53.515015 55 53.395996 54.954987 53.20401 C 54.924988 53.07901 54.966003 52.951996 55.052002 52.867004 Z"/>
        </g>
        <path id="path29" fill="#08393d" stroke="none" d="M 59.970001 50.666016 C 59.970001 50.666016 58.112 52.450012 54.415009 50.056 C 54.415009 50.056 55.355011 55.912994 59.970001 50.666016 Z"/>
        <path id="path30" fill="#9b6538" stroke="none" d="M 83.121002 97.436005 C 82.595001 93.813995 83.141998 90.028015 83.643005 87.661011 C 80.820007 88.947998 77.484985 89.695984 73.536011 89.695984 C 69.824005 89.695984 66.661987 88.945984 63.967987 87.640991 C 64.477997 90.039001 65.040009 93.90802 64.475006 97.585022 C 68.539001 98.940002 75.242004 100.127014 83.121002 97.436005 Z"/>
        <path id="path31" fill="none" stroke="#08393d" stroke-linecap="round" stroke-linejoin="round" d="M 64.610992 74.429993 C 64.610992 74.429993 67.625 76.302002 73.798004 76.302002"/>
        <path id="path32" fill="none" stroke="#08393d" stroke-linecap="round" stroke-linejoin="round" d="M 82.984985 74.429993 C 82.984985 74.429993 79.971008 76.302002 73.798004 76.302002"/>
        <path id="path33" fill="none" stroke="none" d="M 30.32901 121.901001 C 29.953003 121.697998 29.579987 121.492981 29.216003 121.279999 C 29.575989 121.516998 29.94101 121.742981 30.303986 121.971008 L 30.32901 121.901001 Z"/>
        <path id="path34" fill="#fbffff" stroke="none" d="M 111.911011 120.718994 C 111.134003 119.61499 110.304993 118.609985 109.43399 117.695984 C 76.264008 128.914978 48.548004 120.796997 38.773987 117.085022 C 37.566986 118.273987 36.425995 119.614014 35.389008 121.151978 C 59.416992 131.14502 98.520996 123.734985 111.911011 120.718994 Z"/>
        <path id="path35" fill="#fbffff" stroke="none" d="M 33.92099 123.606995 C 33.855011 123.72998 33.789001 123.85199 33.723999 123.97699 C 64.751007 140.916016 105.431 130.440979 115.395996 127.460999 C 114.970001 126.296997 114.5 125.205017 113.985992 124.186005 C 101.247009 126.674988 58.381989 133.876007 33.92099 123.606995 Z"/>
        <path id="path36" fill="#fe6458" stroke="none" d="M 35.390015 121.151001 C 34.872986 121.919006 34.384003 122.739014 33.921997 123.606018 C 58.382996 133.875 101.247986 126.674988 113.988007 124.186005 C 113.354004 122.927979 112.657013 121.778015 111.911987 120.718994 C 98.520996 123.734985 59.416992 131.14502 35.390015 121.151001 Z"/>
        <path id="path37" fill="#fe6458" stroke="none" d="M 72.17099 143.375 C 72.201996 143.375 72.231995 143.377014 72.263 143.377014 C 88.661011 143.377014 103.743988 137.783997 115.742004 128.423004 C 115.730011 128.388 115.71701 128.356995 115.705994 128.322021 C 103.704987 137.72998 88.600006 143.359009 72.17099 143.375 Z"/>
        <path id="path38" fill="#fbffff" stroke="none" d="M 115.562988 127.923004 C 115.562988 127.924011 115.562988 127.924011 115.562988 127.923004 C 114.549011 128.470001 113.53299 128.983002 112.516998 129.473999 C 112.401001 129.529999 112.283997 129.588989 112.167999 129.643982 C 111.177002 130.115997 110.18399 130.562012 109.19101 130.983002 C 109.057007 131.039978 108.923004 131.095001 108.789001 131.151001 C 106.757996 131.998993 104.723999 132.744995 102.694 133.393982 C 102.569 133.434021 102.444 133.476013 102.317993 133.515015 C 101.324005 133.826996 100.330994 134.117004 99.339996 134.384003 C 99.217987 134.416992 99.096985 134.447998 98.975006 134.47998 C 96.947998 135.015991 94.928009 135.463013 92.92099 135.826996 C 92.790985 135.851013 92.661011 135.875 92.531006 135.89801 C 91.549011 136.070984 90.569 136.226013 89.593994 136.360992 C 89.488007 136.376007 89.382996 136.388 89.277008 136.403015 C 88.278992 136.536987 87.285004 136.656006 86.29599 136.752014 C 86.294006 136.752014 86.290985 136.752991 86.289001 136.752991 C 85.303009 136.848999 84.324005 136.923004 83.347992 136.984009 C 83.213013 136.992004 83.078003 137.001007 82.944 137.009003 C 81.98999 137.063995 81.040009 137.10498 80.096985 137.127991 C 80.007996 137.130005 79.920013 137.130981 79.830994 137.132996 C 78.891998 137.153992 77.958008 137.161011 77.032013 137.151978 C 76.985992 137.151978 76.94101 137.151978 76.894989 137.151978 C 75.959991 137.141998 75.033997 137.11499 74.113007 137.078003 C 73.975006 137.072021 73.837006 137.067017 73.699005 137.059998 C 72.789001 137.018982 71.885986 136.96698 70.992004 136.901001 C 70.920013 136.895996 70.847992 136.889008 70.776001 136.884003 C 69.898987 136.817017 69.029999 136.739014 68.170013 136.651001 C 68.093994 136.643005 68.015991 136.635986 67.940002 136.627991 C 67.066986 136.536011 66.204987 136.432007 65.351013 136.320007 C 65.216003 136.302002 65.082001 136.283997 64.946991 136.265991 C 64.093994 136.149994 63.248993 136.026978 62.415985 135.893982 C 62.365997 135.885986 62.316986 135.877014 62.266998 135.869019 C 61.451996 135.737 60.647003 135.596008 59.852997 135.447998 C 59.76001 135.431 59.665009 135.414001 59.571991 135.397003 C 58.77301 135.246002 57.987 135.088013 57.209991 134.924011 C 57.082001 134.897003 56.95401 134.869019 56.825989 134.84198 C 56.042999 134.673004 55.268005 134.5 54.509003 134.320007 C 54.489014 134.315002 54.471008 134.309998 54.450989 134.306 C 53.697998 134.127014 52.959991 133.940979 52.233002 133.752991 C 52.131012 133.72699 52.028992 133.700989 51.928009 133.674011 C 51.213989 133.487 50.514008 133.294983 49.825989 133.101013 C 49.710999 133.067993 49.596985 133.036011 49.483002 133.002991 C 48.083008 132.602997 46.739014 132.190002 45.457001 131.77301 C 45.355011 131.73999 45.252991 131.707001 45.152008 131.674011 C 44.535004 131.471008 43.933014 131.268005 43.345001 131.063995 C 43.248993 131.031006 43.153992 130.997009 43.05899 130.963989 C 41.859009 130.544983 40.725006 130.127014 39.660004 129.71698 C 39.571014 129.682983 39.481995 129.648987 39.394012 129.61499 C 38.881012 129.416016 38.384003 129.220001 37.906006 129.026001 C 37.838013 128.997986 37.772003 128.971985 37.704987 128.944 C 37.227997 128.75 36.765991 128.559021 36.325989 128.372986 C 36.312012 128.367004 36.29599 128.360992 36.282013 128.35498 C 35.82901 128.162994 35.399994 127.977997 34.987 127.796021 C 34.924988 127.768982 34.863007 127.742004 34.800995 127.713989 C 34.397003 127.536011 34.011993 127.363007 33.64801 127.197021 C 33.622986 127.186005 33.601013 127.174988 33.575989 127.164001 C 33.199005 126.990997 32.841003 126.825012 32.51001 126.669006 C 32.51001 126.669006 32.51001 126.669006 32.51001 126.669006 C 32.291992 127.218018 32.085999 127.786011 31.889008 128.369019 C 31.881989 128.390991 31.872986 128.411011 31.865997 128.432983 C 31.665009 129.035004 31.476013 129.656982 31.300995 130.299988 C 41.316986 137.424988 53.259003 142.014008 66.200012 143.115997 C 66.518005 143.141998 66.837006 143.166992 67.156006 143.188995 C 67.79599 143.234985 68.437988 143.274994 69.083008 143.304016 C 69.885986 143.338013 70.691986 143.358002 71.501007 143.36499 C 71.725006 143.367004 71.946991 143.377991 72.171997 143.377991 C 88.600006 143.360992 103.705994 137.733002 115.707001 128.325012 C 115.661011 128.186005 115.609985 128.057983 115.562988 127.923004 Z"/>
        <path id="path39" fill="#fe6458" stroke="none" d="M 33.723999 123.97699 C 33.289001 124.822998 32.882996 125.718994 32.507996 126.666016 C 32.838989 126.822998 33.196991 126.989014 33.574005 127.161011 C 33.597992 127.171997 33.621002 127.182983 33.645996 127.194 C 34.009003 127.359985 34.394989 127.53302 34.799011 127.710999 C 34.859985 127.738007 34.921997 127.765015 34.984985 127.792999 C 35.39801 127.973999 35.826996 128.160004 36.279999 128.35199 C 36.294006 128.358002 36.309998 128.364014 36.324005 128.369995 C 36.765015 128.556 37.22699 128.747009 37.703003 128.940979 C 37.770996 128.968994 37.835999 128.994995 37.903992 129.02301 C 38.382996 129.216003 38.878998 129.412994 39.391998 129.612 C 39.480011 129.645996 39.569 129.679993 39.65799 129.713989 C 40.722992 130.123993 41.856995 130.541992 43.057007 130.960999 C 43.153015 130.994019 43.247009 131.028015 43.342987 131.061005 C 43.929993 131.265015 44.53299 131.468018 45.149994 131.671021 C 45.251007 131.703979 45.352997 131.737 45.454987 131.77002 C 46.737 132.187012 48.080994 132.600006 49.480988 133 C 49.596008 133.03302 49.709015 133.065979 49.824005 133.098022 C 50.511993 133.291992 51.212006 133.484009 51.925995 133.671021 C 52.027008 133.697998 52.128998 133.723022 52.230988 133.75 C 52.959015 133.938995 53.696014 134.123993 54.449005 134.302979 C 54.468994 134.307983 54.488007 134.312988 54.506989 134.317017 C 55.265991 134.497009 56.040985 134.671021 56.824005 134.838989 C 56.951996 134.865997 57.07901 134.893982 57.208008 134.921021 C 57.984985 135.085022 58.770996 135.242981 59.570007 135.393982 C 59.662994 135.411011 59.757996 135.427979 59.851013 135.445007 C 60.645996 135.593018 61.450012 135.734009 62.265015 135.865997 C 62.315002 135.873993 62.364014 135.882996 62.414001 135.890991 C 63.247009 136.024994 64.09201 136.14801 64.945007 136.263 C 65.079987 136.281006 65.213989 136.299011 65.348999 136.317017 C 66.203003 136.429016 67.06601 136.53302 67.937988 136.625 C 68.014008 136.632996 68.091003 136.640015 68.167999 136.64801 C 69.028992 136.737 69.897003 136.815002 70.773987 136.880981 C 70.846008 136.886993 70.917999 136.893005 70.98999 136.89801 C 71.884003 136.963989 72.787994 137.015991 73.696991 137.057007 C 73.834991 137.062988 73.972992 137.069 74.110992 137.075012 C 75.032013 137.113007 75.958008 137.139008 76.893005 137.148987 C 76.937988 137.149994 76.984009 137.148987 77.029999 137.148987 C 77.957001 137.15802 78.890015 137.151001 79.82901 137.130005 C 79.917999 137.127991 80.006012 137.127014 80.095001 137.125 C 81.037994 137.10199 81.988007 137.061005 82.941986 137.005981 C 83.076996 136.997986 83.210999 136.98999 83.346008 136.981018 C 84.321991 136.919983 85.300995 136.846008 86.286987 136.75 C 86.289001 136.75 86.291992 136.748993 86.294006 136.748993 C 87.28299 136.653015 88.277008 136.533997 89.274994 136.399994 C 89.381012 136.385986 89.485992 136.372986 89.59201 136.358002 C 90.566986 136.223022 91.546997 136.067993 92.528992 135.89502 C 92.658997 135.872009 92.789001 135.848022 92.919006 135.824005 C 94.925995 135.460022 96.946014 135.014008 98.972992 134.47699 C 99.095001 134.445007 99.216003 134.414001 99.338013 134.380981 C 100.32901 134.113007 101.321991 133.824005 102.31601 133.511993 C 102.44101 133.473022 102.56601 133.431 102.691986 133.390991 C 104.721985 132.742004 106.755005 131.997009 108.786987 131.14801 C 108.92099 131.09198 109.054993 131.036987 109.188995 130.97998 C 110.182007 130.557983 111.174988 130.113007 112.165985 129.640991 C 112.282013 129.585999 112.398987 129.526978 112.515015 129.471008 C 113.532013 128.97998 114.548004 128.46698 115.561005 127.921021 C 115.561005 127.921021 115.561005 127.921021 115.561005 127.921021 C 115.506012 127.765015 115.450989 127.612 115.394012 127.458984 C 105.431 130.440979 64.752014 140.916992 33.723999 123.97699 Z"/>
    </g>
</svg>
