<?xml version="1.0" encoding="UTF-8"?>
<!-- Generated by Pixelmator Pro 2.4.5 -->
<svg width="143" height="147" viewBox="0 0 143 147" xmlns="http://www.w3.org/2000/svg" xmlns:xlink="http://www.w3.org/1999/xlink">
    <g id="Group">
        <path id="Path" fill="#6273cd" stroke="none" d="M 78.079773 2.206085 C 116.966766 6.110413 145.325867 40.799652 141.421509 79.686676 C 137.517181 118.5737 102.827942 146.93277 63.940918 143.028412 C 25.053894 139.124084 -3.305176 104.434845 0.599167 65.547821 C 4.503494 26.660797 39.192734 -1.698273 78.079773 2.206085 Z"/>
        <path id="path1" fill="#ffb444" stroke="none" d="M 86.463989 97.510986 L 87.690002 95.865997 C 86.10199 94.278015 83.907013 93.328003 81.678009 92.763 C 77.160004 91.619019 72.507996 92.070007 72.507996 92.070007 C 72.507996 92.070007 67.899002 91.622986 63.401993 92.746002 C 61.151993 93.307983 58.929993 94.261993 57.326996 95.86499 L 58.470993 97.51001 C 58.470993 97.51001 64.037994 106.998993 72.134995 106.998993 L 72.509995 106.998993 L 72.802002 106.998993 C 80.897003 107 86.463989 97.510986 86.463989 97.510986 Z"/>
        <path id="path2" fill="#f7cfa4" stroke="none" d="M 86.135986 105.264008 C 80.347992 101.166992 81.453003 92.001007 82.377014 87.64502 C 79.553986 88.931 76.218994 89.679993 72.270004 89.679993 C 68.557999 89.679993 65.395996 88.929993 62.701996 87.625 C 63.626007 91.973022 64.744003 101.161011 58.947006 105.264008 C 52.440002 109.869995 35.315002 110.904999 30.039993 130.298004 C 41.602997 138.523987 55.731995 143.377991 71.003998 143.377991 C 87.402008 143.377991 102.484985 137.785004 114.483002 128.424011 C 108.645996 110.828979 92.427002 109.71698 86.135986 105.264008 Z"/>
        <path id="path3" fill="#f7cfa4" stroke="none" d="M 97.358002 48.825012 C 97.358002 48.825012 84.731995 40.476013 81.362 26.997986 C 81.362 26.997986 70.190994 42.367004 47.869003 43.208984 C 47.869003 43.208984 47.369995 48.01001 47.662994 54.523987 C 48.166 65.708008 51.005997 81.945007 62.729004 87.623993 C 65.423004 88.929016 68.585007 89.679016 72.296997 89.679016 C 76.246002 89.679016 79.580994 88.929993 82.403992 87.643982 C 95.86499 81.509003 97.572998 63.036987 97.565002 53.96701 C 97.563995 50.841003 97.358002 48.825012 97.358002 48.825012 Z"/>
        <g id="g1">
            <path id="path4" fill="#08393d" stroke="none" d="M 67.664001 47.806 C 66.455002 47.005005 65.154999 46.369995 63.837006 45.983002 C 62.516006 45.593994 61.164993 45.449005 59.813004 45.531006 C 58.459 45.660004 57.119995 46.007019 55.789993 46.51001 C 55.126999 46.760986 54.488998 47.098999 53.811996 47.376007 C 53.171997 47.723999 52.529007 48.082001 51.835999 48.401001 L 51.809006 48.412994 C 51.667007 48.477997 51.498993 48.416016 51.432999 48.273987 C 51.384003 48.166992 51.406998 48.04599 51.481003 47.964996 C 51.998001 47.398987 52.557999 46.864014 53.132004 46.335999 C 53.766998 45.891998 54.378998 45.386993 55.076996 45.015991 C 56.455994 44.233002 58.020996 43.727997 59.653 43.548004 C 61.292007 43.427002 62.970993 43.701996 64.447998 44.385986 C 65.929001 45.059998 67.210007 46.085999 68.085007 47.437012 C 68.169998 47.567993 68.132004 47.742981 68.001007 47.828003 C 67.904007 47.890991 67.781998 47.886993 67.690994 47.826996 L 67.664001 47.806 Z"/>
        </g>
        <g id="g2">
            <path id="path5" fill="#08393d" stroke="none" d="M 77.050995 47.436005 C 77.925995 46.084991 79.207001 45.05899 80.687988 44.38501 C 82.165985 43.700989 83.845001 43.425995 85.483002 43.546997 C 87.11499 43.726013 88.679993 44.231995 90.05899 45.015015 C 90.756989 45.385986 91.368988 45.890991 92.003998 46.334991 C 92.578003 46.863007 93.138 47.39801 93.654999 47.963989 C 93.76001 48.07901 93.752014 48.259003 93.636993 48.364014 C 93.550995 48.442993 93.428009 48.458008 93.328003 48.412994 L 93.300995 48.399994 C 92.609009 48.082001 91.966003 47.723999 91.325012 47.375 C 90.648987 47.096985 90.01001 46.76001 89.346985 46.509003 C 88.018005 46.005005 86.678009 45.658997 85.324005 45.529999 C 83.971008 45.447998 82.621002 45.593018 81.299011 45.981995 C 79.980988 46.369019 78.682007 47.003998 77.471985 47.804993 L 77.442993 47.824005 C 77.312988 47.910004 77.136993 47.875 77.050995 47.744995 C 76.988998 47.648987 76.992004 47.527008 77.050995 47.436005 Z"/>
        </g>
        <linearGradient id="linearGradient1" x1="72.0699" y1="54.5242" x2="72.0699" y2="6.4272" gradientUnits="userSpaceOnUse">
            <stop offset="1e-05" stop-color="#200e00" stop-opacity="1"/>
            <stop offset="1" stop-color="#693500" stop-opacity="1"/>
        </linearGradient>
        <path id="path6" fill="url(#linearGradient1)" stroke="none" d="M 110.178009 39.347992 C 108.914001 33.029999 107.019012 29.959991 104.071014 30.968994 C 101.122986 31.977997 105.966003 26.080994 100.490997 21.658997 C 95.015991 17.235992 90.158997 15.972992 83.005005 21.658997 C 82.184998 22.311005 77.283997 8.812988 69.408005 12.182007 C 61.531998 15.550995 40.261993 -0.875 35.207993 10.497009 C 30.154007 21.869019 42.367996 29.661011 42.367996 29.661011 C 42.367996 29.661011 31.703995 31.977997 33.983002 37.031982 C 36.261002 42.085999 40.473007 43.350006 40.473007 43.350006 C 40.473007 43.350006 35.076996 52.654999 47.570999 54.510986 C 47.600998 54.515015 47.634003 54.519989 47.664001 54.523987 C 47.371002 48.01001 47.869995 43.208984 47.869995 43.208984 C 70.192993 42.367004 81.363007 26.997986 81.363007 26.997986 C 84.733002 40.476013 97.359009 48.825012 97.359009 48.825012 C 97.359009 48.825012 97.563995 50.841003 97.566986 53.968018 C 101.087006 53.458008 103.601013 52.820007 104.493011 52.048004 C 108.704987 48.403992 108.283997 46.345001 108.283997 46.345001 C 108.283997 46.345001 111.441986 45.666016 110.178009 39.347992 Z"/>
        <path id="path7" fill="none" stroke="#08393d" stroke-linecap="round" stroke-linejoin="round" d="M 69.744995 76.903992 C 69.744995 76.903992 78.730011 79.431 82.100006 74.798004"/>
        <path id="path8" fill="none" stroke="#08393d" stroke-linecap="round" stroke-linejoin="round" d="M 81.274994 73.200989 C 81.274994 73.200989 81.800995 74.990997 83.222992 75.781006"/>
        <path id="path9" fill="none" stroke="#08393d" stroke-linecap="round" stroke-linejoin="round" d="M 77.484009 79.914001 C 77.484009 79.914001 80.054993 80.140015 82.098999 77.59198"/>
        <g id="g3">
            <g id="g4">
                <g id="g5">
                    <linearGradient id="linearGradient2" x1="69.35" y1="19.3421" x2="81.0902" y2="19.3421" gradientUnits="userSpaceOnUse">
                        <stop offset="1e-05" stop-color="#470e00" stop-opacity="1"/>
                        <stop offset="1" stop-color="#470e00" stop-opacity="1"/>
                    </linearGradient>
                    <path id="path10" fill="none" stroke="url(#linearGradient2)" stroke-linecap="round" stroke-linejoin="round" d="M 80.589996 23.343018 C 80.589996 23.343018 77.431 15.339996 69.850006 15.339996"/>
                </g>
                <g id="g6">
                    <linearGradient id="linearGradient3" x1="41.973" y1="20.5373" x2="77.089" y2="20.5373" gradientUnits="userSpaceOnUse">
                        <stop offset="1e-05" stop-color="#470e00" stop-opacity="1"/>
                        <stop offset="1" stop-color="#470e00" stop-opacity="1"/>
                    </linearGradient>
                    <path id="path11" fill="none" stroke="url(#linearGradient3)" stroke-linecap="round" stroke-linejoin="round" d="M 76.589005 22.817017 C 76.272995 22.817017 58.162003 12.919006 42.473007 22.291016"/>
                </g>
                <g id="g7">
                    <linearGradient id="linearGradient4" x1="52.6864" y1="26.8414" x2="79.1949" y2="26.8414" gradientUnits="userSpaceOnUse">
                        <stop offset="1e-05" stop-color="#470e00" stop-opacity="1"/>
                        <stop offset="1" stop-color="#470e00" stop-opacity="1"/>
                    </linearGradient>
                    <path id="path12" fill="none" stroke="url(#linearGradient4)" stroke-linecap="round" stroke-linejoin="round" d="M 78.695007 26.997986 C 78.695007 26.997986 62.636993 18.18399 53.186996 29.872009"/>
                </g>
                <g id="g8">
                    <linearGradient id="linearGradient5" x1="39.6565" y1="30.8953" x2="54.9768" y2="30.8953" gradientUnits="userSpaceOnUse">
                        <stop offset="1e-05" stop-color="#470e00" stop-opacity="1"/>
                        <stop offset="1" stop-color="#470e00" stop-opacity="1"/>
                    </linearGradient>
                    <path id="path13" fill="none" stroke="url(#linearGradient5)" stroke-linecap="round" stroke-linejoin="round" d="M 54.477005 23.811005 C 53.951004 23.869995 42.052002 28.819 40.156998 37.980011"/>
                </g>
                <g id="g9">
                    <linearGradient id="linearGradient6" x1="44.7107" y1="22.3505" x2="61.9263" y2="22.3505" gradientUnits="userSpaceOnUse">
                        <stop offset="1e-05" stop-color="#470e00" stop-opacity="1"/>
                        <stop offset="1" stop-color="#470e00" stop-opacity="1"/>
                    </linearGradient>
                    <path id="path14" fill="none" stroke="url(#linearGradient6)" stroke-linecap="round" stroke-linejoin="round" d="M 61.425995 21.132019 C 61.425995 21.132019 50.669998 18.154999 45.210007 24.291016"/>
                </g>
                <g id="g10">
                    <linearGradient id="linearGradient7" x1="49.0278" y1="32.6151" x2="77.089" y2="32.6151" gradientUnits="userSpaceOnUse">
                        <stop offset="1e-05" stop-color="#470e00" stop-opacity="1"/>
                        <stop offset="1" stop-color="#470e00" stop-opacity="1"/>
                    </linearGradient>
                    <path id="path15" fill="none" stroke="url(#linearGradient7)" stroke-linecap="round" stroke-linejoin="round" d="M 76.589005 28.924011 C 76.589005 28.924011 61.320999 24.606995 49.528 37.031982"/>
                </g>
                <g id="g11">
                    <linearGradient id="linearGradient8" x1="41.9597" y1="37.8743" x2="48.0708" y2="37.8743" gradientUnits="userSpaceOnUse">
                        <stop offset="1e-05" stop-color="#470e00" stop-opacity="1"/>
                        <stop offset="1" stop-color="#470e00" stop-opacity="1"/>
                    </linearGradient>
                    <path id="path16" fill="none" stroke="url(#linearGradient8)" stroke-linecap="round" stroke-linejoin="round" d="M 47.570999 33.17099 C 47.570999 33.17099 42.156998 38.436005 42.473007 42.576996"/>
                </g>
                <g id="g12">
                    <linearGradient id="linearGradient9" x1="50.3616" y1="35.9993" x2="73.0686" y2="35.9993" gradientUnits="userSpaceOnUse">
                        <stop offset="1e-05" stop-color="#470e00" stop-opacity="1"/>
                        <stop offset="1" stop-color="#470e00" stop-opacity="1"/>
                    </linearGradient>
                    <path id="path17" fill="none" stroke="url(#linearGradient9)" stroke-linecap="round" stroke-linejoin="round" d="M 72.569 30.894989 C 72.569 30.894989 60.197998 40.401001 50.862 41.102997"/>
                </g>
                <g id="g13">
                    <linearGradient id="linearGradient10" x1="41.8189" y1="46.9999" x2="44.9034" y2="46.9999" gradientUnits="userSpaceOnUse">
                        <stop offset="1e-05" stop-color="#470e00" stop-opacity="1"/>
                        <stop offset="1" stop-color="#470e00" stop-opacity="1"/>
                    </linearGradient>
                    <path id="path18" fill="none" stroke="url(#linearGradient10)" stroke-linecap="round" stroke-linejoin="round" d="M 44.403 42.998993 C 44.403 42.998993 40.113007 47.492004 43.841003 51.002014"/>
                </g>
                <g id="g14">
                    <linearGradient id="linearGradient11" x1="39.6565" y1="15.3737" x2="65.1905" y2="15.3737" gradientUnits="userSpaceOnUse">
                        <stop offset="1e-05" stop-color="#470e00" stop-opacity="1"/>
                        <stop offset="1" stop-color="#470e00" stop-opacity="1"/>
                    </linearGradient>
                    <path id="path19" fill="none" stroke="url(#linearGradient11)" stroke-linecap="round" stroke-linejoin="round" d="M 64.690002 15.341003 C 64.690002 15.341003 45.184006 11.937012 40.156006 16.605011"/>
                </g>
                <g id="g15">
                    <linearGradient id="linearGradient12" x1="85.3181" y1="36.6219" x2="106.6375" y2="36.6219" gradientUnits="userSpaceOnUse">
                        <stop offset="1e-05" stop-color="#470e00" stop-opacity="1"/>
                        <stop offset="1" stop-color="#470e00" stop-opacity="1"/>
                    </linearGradient>
                    <path id="path20" fill="none" stroke="url(#linearGradient12)" stroke-linecap="round" stroke-linejoin="round" d="M 85.817993 27.765991 C 85.817993 27.765991 96.911011 31.346008 100.911987 39.348999 C 102.345001 42.214996 104.264008 44.161011 106.136993 45.479004"/>
                </g>
                <g id="g16">
                    <linearGradient id="linearGradient13" x1="85.6642" y1="32.0303" x2="105.7295" y2="32.0303" gradientUnits="userSpaceOnUse">
                        <stop offset="1e-05" stop-color="#470e00" stop-opacity="1"/>
                        <stop offset="1" stop-color="#470e00" stop-opacity="1"/>
                    </linearGradient>
                    <path id="path21" fill="none" stroke="url(#linearGradient13)" stroke-linecap="round" stroke-linejoin="round" d="M 86.164001 25.343994 C 86.164001 25.343994 100.070007 27.765991 105.229004 38.71701"/>
                </g>
                <g id="g17">
                    <linearGradient id="linearGradient14" x1="88.4155" y1="25.0682" x2="100.9912" y2="25.0682" gradientUnits="userSpaceOnUse">
                        <stop offset="1e-05" stop-color="#470e00" stop-opacity="1"/>
                        <stop offset="1" stop-color="#470e00" stop-opacity="1"/>
                    </linearGradient>
                    <path id="path22" fill="none" stroke="url(#linearGradient14)" stroke-linecap="round" stroke-linejoin="round" d="M 88.915009 23.343018 C 89.013 23.238007 98.48999 22.968018 100.490997 26.841003"/>
                </g>
                <g id="g18">
                    <linearGradient id="linearGradient15" x1="84.1335" y1="21.899" x2="96.99" y2="21.899" gradientUnits="userSpaceOnUse">
                        <stop offset="1e-05" stop-color="#470e00" stop-opacity="1"/>
                        <stop offset="1" stop-color="#470e00" stop-opacity="1"/>
                    </linearGradient>
                    <path id="path23" fill="none" stroke="url(#linearGradient15)" stroke-linecap="round" stroke-linejoin="round" d="M 84.632996 23.343018 C 84.632996 23.343018 90.488007 18.078003 96.48999 21.764008"/>
                </g>
                <g id="g19">
                    <linearGradient id="linearGradient16" x1="85.6642" y1="41.0268" x2="104.9467" y2="41.0268" gradientUnits="userSpaceOnUse">
                        <stop offset="1e-05" stop-color="#470e00" stop-opacity="1"/>
                        <stop offset="1" stop-color="#470e00" stop-opacity="1"/>
                    </linearGradient>
                    <path id="path24" fill="none" stroke="url(#linearGradient16)" stroke-linecap="round" stroke-linejoin="round" d="M 86.164001 32.029999 C 86.164001 32.029999 92.699005 30.713989 100.490997 45.033997 C 101.699005 47.253998 103.040985 48.884003 104.446991 50.054993"/>
                </g>
                <g id="g20">
                    <linearGradient id="linearGradient17" x1="88.8231" y1="41.4247" x2="98.6747" y2="41.4247" gradientUnits="userSpaceOnUse">
                        <stop offset="1e-05" stop-color="#470e00" stop-opacity="1"/>
                        <stop offset="1" stop-color="#470e00" stop-opacity="1"/>
                    </linearGradient>
                    <path id="path25" fill="none" stroke="url(#linearGradient17)" stroke-linecap="round" stroke-linejoin="round" d="M 89.322998 36.505005 C 89.322998 36.505005 95.541992 39.860992 98.174988 46.343994"/>
                </g>
            </g>
        </g>
        <path id="path26" fill="#f7cfa4" stroke="none" d="M 37.242996 57.319 C 35.067001 61.67099 41.093994 71.412994 49.628006 68.682983 L 49.628006 68.675995 C 48.389999 63.800995 47.854996 58.794006 47.662994 54.523987 C 47.662994 54.523987 39.419006 52.96701 37.242996 57.319 Z"/>
        <path id="path27" fill="#f7cfa4" stroke="none" d="M 108.632996 57.319 C 106.457001 52.96701 98.213013 54.523987 98.213013 54.523987 C 98.213013 54.523987 97.937988 54.554016 97.562988 54.615997 C 97.53299 58.343018 97.200012 63.436005 95.962006 68.589996 C 96.062012 68.619995 96.160004 68.648987 96.247986 68.675995 L 96.247986 68.682983 C 104.781006 71.412994 110.80899 61.67099 108.632996 57.319 Z"/>
        <path id="path28" fill="none" stroke="#08393d" stroke-linecap="round" stroke-linejoin="round" d="M 40.117996 60.556 C 40.117996 60.556 43.764999 57.884003 46.304993 61.390015 C 46.304993 61.390015 41.779999 62.125 43.447998 65.036987"/>
        <path id="path29" fill="none" stroke="#08393d" stroke-linecap="round" stroke-linejoin="round" d="M 105.61499 60.556 C 105.61499 60.556 101.967987 57.884003 99.428009 61.390015 C 99.428009 61.390015 103.953003 62.125 102.285004 65.036987"/>
        <linearGradient id="linearGradient18" x1="55.815" y1="53.5658" x2="62.0674" y2="53.5658" gradientUnits="userSpaceOnUse">
            <stop offset="1e-05" stop-color="#470e00" stop-opacity="1"/>
            <stop offset="1" stop-color="#470e00" stop-opacity="1"/>
        </linearGradient>
        <path id="path30" fill="url(#linearGradient18)" stroke="none" d="M 62.067001 53.56601 C 62.067001 55.292999 60.667007 56.692017 58.940994 56.692017 C 57.214005 56.692017 55.815002 55.291992 55.815002 53.56601 C 55.815002 51.838989 57.214996 50.440002 58.940994 50.440002 C 60.667999 50.440002 62.067001 51.838989 62.067001 53.56601 Z"/>
        <path id="path31" fill="none" stroke="#08393d" stroke-linecap="round" stroke-linejoin="round" d="M 76.281006 50.720001 C 78.386993 54.932007 75.964996 64.830017 75.964996 64.830017 C 75.964996 64.830017 79.634003 69.463013 73.587997 69.463013 L 72.472 69.463013 L 71.356003 69.463013 C 65.309998 69.463013 68.979004 64.830017 68.979004 64.830017 L 69.052994 64.830017 C 69.052994 64.830017 66.630997 54.932007 68.737 50.720001"/>
        <linearGradient id="linearGradient19" x1="83.0468" y1="53.5658" x2="89.2992" y2="53.5658" gradientUnits="userSpaceOnUse">
            <stop offset="1e-05" stop-color="#470e00" stop-opacity="1"/>
            <stop offset="1" stop-color="#470e00" stop-opacity="1"/>
        </linearGradient>
        <path id="path32" fill="url(#linearGradient19)" stroke="none" d="M 83.046997 53.56601 C 83.046997 55.292999 84.446991 56.692017 86.173004 56.692017 C 87.899994 56.692017 89.299011 55.291992 89.299011 53.56601 C 89.299011 51.838989 87.898987 50.440002 86.173004 50.440002 C 84.446014 50.440002 83.046997 51.838989 83.046997 53.56601 Z"/>
        <path id="path33" fill="#e2b486" stroke="none" d="M 81.884003 97.436005 C 81.358002 93.813995 81.904999 90.028015 82.406006 87.661011 C 79.583008 88.947998 76.248001 89.695984 72.298996 89.695984 C 68.585999 89.695984 65.425003 88.945984 62.729996 87.640991 C 63.240005 90.039001 63.802002 93.90802 63.237 97.585022 C 67.302002 98.940002 74.005005 100.127014 81.884003 97.436005 Z"/>
        <path id="path34" fill="#f2dd20" stroke="none" d="M 92.428986 108.299011 C 91.11499 110.496002 86.915009 116.630005 80.098999 118.385986 L 72.507996 107 L 64.917007 118.385986 C 58.126999 116.636993 53.931 110.539001 52.600006 108.320984 C 44.774994 111.471985 34.024002 115.643005 30.037994 130.298004 C 41.600998 138.523987 55.729996 143.377991 71.001999 143.377991 C 87.399994 143.377991 102.483002 137.785004 114.480988 128.424011 C 110.110992 115.244995 99.915009 111.313995 92.428986 108.299011 Z"/>
        <path id="path35" fill="#ffb444" stroke="none" d="M 58.470001 97.510986 L 57.326004 95.865997 L 52.139008 107.505005 C 52.139008 107.505005 52.294006 107.809998 52.600006 108.320007 C 53.931 110.537994 58.126999 116.635986 64.917007 118.38501 L 72.507996 107 L 72.132996 107 C 64.037003 107 58.470001 97.510986 58.470001 97.510986 Z"/>
        <path id="path36" fill="#ffb444" stroke="none" d="M 87.690002 95.867004 L 86.463989 97.511993 C 86.463989 97.511993 80.897003 107.001007 72.800003 107.001007 L 72.507996 107.001007 L 80.098999 118.386993 C 86.914001 116.632019 91.114014 110.497009 92.428986 108.299988 C 92.725006 107.804993 92.877014 107.507019 92.877014 107.507019 L 87.690002 95.867004 Z"/>
        <path id="path37" fill="none" stroke="#08393d" stroke-linecap="round" stroke-linejoin="round" d="M 64.917007 118.385986 L 72.507996 107 L 72.132996 107 C 64.035995 107 58.468994 97.510986 58.468994 97.510986"/>
        <path id="path38" fill="none" stroke="#08393d" stroke-linecap="round" stroke-linejoin="round" d="M 86.463989 97.510986 C 86.463989 97.510986 80.897003 107 72.800003 107 L 72.507996 107 L 80.098999 118.385986"/>
        <path id="path39" fill="none" stroke="#08393d" stroke-width="2" stroke-linecap="round" stroke-linejoin="round" d="M 72.507996 107.949005 L 72.569 118.385986 L 69.537003 124.213013 L 73.373993 142.596008"/>
        <path id="path40" fill="#08393d" stroke="none" d="M 76.048996 125.188995 C 76.048996 126.093018 75.315994 126.825989 74.412003 126.825989 C 73.507996 126.825989 72.774994 126.093018 72.774994 125.188995 C 72.774994 124.285004 73.507996 123.552002 74.412003 123.552002 C 75.315994 123.552002 76.048996 124.285004 76.048996 125.188995 Z"/>
    </g>
</svg>
